<?xml version="1.0" standalone="no"?>
<!DOCTYPE svg PUBLIC "-//W3C//DTD SVG 20010904//EN"
 "http://www.w3.org/TR/2001/REC-SVG-20010904/DTD/svg10.dtd">
<svg version="1.0" xmlns="http://www.w3.org/2000/svg"
 width="704.000000pt" height="704.000000pt" viewBox="0 0 704.000000 704.000000"
 preserveAspectRatio="xMidYMid meet">
<metadata>
Created by potrace 1.16, written by Peter Selinger 2001-2019
</metadata>
<g transform="translate(0.000000,704.000000) scale(0.100000,-0.100000)"
fill="#000000" stroke="none">
<path d="M2670 6918 c-30 -6 -67 -11 -82 -12 -14 0 -26 -5 -25 -10 1 -4 -17
-16 -40 -26 -38 -17 -41 -17 -37 -2 4 12 1 10 -7 -3 -7 -11 -25 -35 -41 -53
-16 -18 -26 -37 -23 -42 7 -11 -20 -20 -53 -19 -24 1 -23 3 8 10 27 6 20 7
-27 4 -35 -3 -65 0 -68 5 -3 6 -15 10 -27 10 -15 0 -18 -4 -13 -17 4 -10 8
-23 9 -30 1 -7 6 -16 11 -20 4 -4 5 -2 1 5 -10 17 9 15 28 -3 8 -8 25 -15 38
-16 20 -1 19 -2 -7 -10 -16 -6 -59 -7 -93 -4 -50 4 -63 3 -60 -7 3 -7 15 -18
28 -25 20 -10 21 -13 9 -18 -9 -3 -35 -4 -57 -1 -50 6 -62 -7 -28 -30 22 -14
24 -18 11 -31 -8 -8 -20 -11 -26 -7 -7 4 -9 3 -6 -3 4 -6 -11 -30 -34 -54 -37
-40 -109 -150 -109 -168 0 -4 -7 -22 -16 -39 -8 -17 -16 -40 -17 -51 -1 -17
-11 -20 -87 -26 -127 -10 -128 -10 -89 -51 l33 -34 115 -2 c75 -1 93 -3 50 -5
l-67 -4 -5 -35 c-6 -38 6 -65 51 -114 l22 -25 40 23 c51 29 52 20 1 -14 -26
-17 -38 -31 -34 -41 3 -8 0 -25 -7 -38 -12 -22 -8 -30 40 -94 46 -62 70 -85
70 -65 0 3 -20 35 -45 71 -25 35 -45 66 -45 68 0 3 47 5 105 5 58 0 105 -2
105 -4 0 -2 -16 -36 -35 -75 -19 -39 -35 -78 -35 -88 0 -10 20 -47 44 -83 23
-36 46 -75 50 -87 14 -43 28 -43 96 -2 566 347 1272 426 1899 213 121 -41 319
-133 428 -199 40 -25 80 -45 88 -45 8 0 28 18 44 40 31 43 69 90 137 168 23
26 47 58 54 71 12 23 11 23 -16 17 -16 -4 -39 -10 -51 -13 -13 -3 -23 -1 -23
5 0 6 26 16 58 23 31 7 65 16 75 21 19 10 23 43 6 53 -5 4 -9 17 -7 30 4 33
-69 82 -276 186 -91 46 -163 85 -161 87 6 6 311 -149 377 -191 55 -36 88 -46
88 -28 0 4 14 24 30 42 17 19 35 42 41 52 8 14 6 17 -18 17 -25 0 -28 4 -30
35 l-3 35 69 0 c65 0 72 2 107 34 35 32 41 34 110 34 71 1 76 -1 132 -42 62
-46 147 -128 163 -157 5 -10 9 -34 9 -54 0 -20 6 -43 14 -51 17 -16 46 -19 46
-4 0 20 27 9 59 -24 34 -35 37 -66 6 -66 -19 0 -19 -7 -2 -25 9 -8 19 -10 28
-4 16 10 26 -15 28 -67 1 -25 6 -33 24 -36 l23 -5 -13 71 c-23 124 -62 217
-105 257 -24 22 -23 32 4 23 28 -9 49 -29 40 -39 -4 -5 -2 -5 5 -1 18 10 96
-77 134 -152 31 -62 34 -74 34 -160 0 -88 2 -95 25 -113 38 -28 47 -23 59 31
17 79 12 151 -16 220 -3 8 -5 21 -4 28 1 6 -2 12 -7 12 -13 0 -32 48 -26 65 5
11 2 13 -10 9 -18 -7 -20 4 -6 26 9 13 11 13 20 0 5 -8 10 -10 10 -4 0 5 -5
15 -12 22 -9 9 -14 7 -24 -5 -10 -15 -14 -15 -28 -4 -9 8 -15 20 -12 27 3 8 0
11 -10 7 -10 -4 -15 0 -14 8 5 32 0 42 -13 30 -10 -8 -18 -6 -33 7 -20 19 -86
56 -117 66 -10 3 -15 11 -11 17 4 8 -1 9 -17 4 -13 -4 -27 -13 -31 -19 -8 -12
-7 -13 -41 39 -26 39 -36 72 -18 61 5 -4 7 3 4 15 -4 15 -8 17 -14 8 -5 -8 -9
0 -11 22 l-3 34 -19 -28 c-16 -24 -18 -35 -9 -73 l10 -45 -29 33 c-16 18 -34
52 -40 75 -12 49 -28 55 -45 16 -10 -21 -10 -28 0 -35 6 -4 7 -8 2 -8 -15 0
-41 33 -52 66 -6 17 -18 30 -29 31 -18 3 -18 2 1 -7 15 -7 11 -8 -20 -5 -28 3
-33 2 -15 -3 15 -5 26 -17 28 -31 3 -22 3 -22 -25 -8 -50 27 -178 39 -283 29
-57 -6 -96 -15 -98 -22 -3 -7 -14 6 -27 27 -29 53 -104 153 -113 153 -4 0 -7
26 -8 58 0 35 -7 70 -19 92 l-18 35 31 -33 c66 -70 111 -129 104 -136 -4 -4
-2 -6 4 -4 14 4 74 -42 74 -57 0 -8 10 -11 28 -8 25 4 25 3 10 -10 -10 -8 -18
-19 -18 -25 0 -5 -7 -13 -16 -16 -37 -14 4 -20 163 -24 170 -4 288 9 280 32
-2 6 -21 14 -43 17 -41 6 -37 8 31 22 15 4 14 5 -6 6 -14 0 -40 -4 -57 -10
-22 -8 -46 -8 -79 -1 -60 13 -178 79 -194 110 -20 35 -32 26 -25 -18 5 -31 3
-40 -8 -40 -7 0 -16 9 -19 20 -3 11 -11 20 -19 20 -10 0 -9 -3 2 -10 8 -5 10
-10 4 -10 -16 0 -126 129 -119 140 3 5 0 7 -9 4 -9 -3 -17 2 -21 14 -3 11 -23
36 -45 55 -21 20 -35 38 -32 42 4 4 3 5 -3 4 -5 -2 -24 5 -42 14 -18 9 -40 17
-51 17 -10 0 -22 3 -25 7 -19 18 -197 -7 -197 -28 0 -5 -17 -2 -37 7 -25 10
-75 17 -143 20 -73 2 -116 8 -144 21 -37 17 -38 18 -15 24 38 11 141 10 179
-1 19 -6 49 -12 66 -15 18 -2 48 -11 67 -19 25 -10 46 -12 69 -6 18 4 56 11
83 15 28 4 44 10 37 12 -6 3 -9 9 -6 15 4 5 -4 5 -16 -2 -13 -7 -20 -8 -16 -1
4 5 -2 15 -13 20 -29 16 -38 13 -15 -4 10 -8 14 -15 8 -15 -6 0 -17 7 -24 15
-7 8 -30 20 -51 25 -22 6 -37 15 -34 20 3 5 -7 9 -22 9 -15 0 -62 7 -103 16
-111 24 -252 13 -385 -30 l-20 -7 20 18 c18 15 18 16 2 10 -10 -3 -28 -1 -39
5 -22 12 -258 28 -258 18 0 -4 -15 -10 -34 -13 -19 -4 -54 -24 -78 -45 l-43
-39 -1 -78 c-1 -44 -9 -105 -18 -136 l-17 -56 -64 -4 c-62 -3 -65 -2 -65 20 0
29 -18 28 -26 -2 -5 -21 -12 -24 -83 -30 -94 -8 -111 -3 -111 35 0 26 3 29 31
29 30 0 31 -2 26 -30 -6 -25 -3 -30 13 -30 11 0 20 7 20 16 0 8 4 12 10 9 6
-3 7 1 4 10 -4 10 6 33 25 60 57 79 30 163 -54 167 -19 0 -40 1 -47 2 -6 1
-12 -5 -14 -12 -1 -7 0 -8 3 -2 11 23 22 8 16 -22 -9 -51 -20 -66 -60 -78 -38
-13 -141 -8 -184 8 -13 6 -42 17 -64 26 -22 8 -53 20 -69 26 -16 6 -26 13 -23
16 3 3 15 1 26 -6 13 -6 21 -7 21 -1 0 16 -28 19 -185 17 -82 0 -140 0 -127 2
12 2 22 7 22 12 0 10 59 32 70 25 4 -3 10 1 13 9 3 8 32 20 64 26 71 15 168 3
243 -31 50 -23 60 -34 38 -42 -7 -2 -5 -3 4 -2 17 3 68 -47 68 -65 0 -30 95
-19 103 12 3 11 3 17 0 14 -4 -3 -15 8 -25 25 -16 26 -17 34 -6 40 10 7 10 9
-2 10 -8 1 -18 1 -23 0 -4 -1 -12 9 -18 21 -14 31 -139 85 -225 98 -78 11 -80
11 -154 -2z m1423 -166 c34 -27 34 -29 15 -41 -42 -26 -64 -149 -38 -216 9
-24 8 -26 -12 -19 -27 8 -60 43 -53 55 3 4 0 11 -6 15 -8 5 -9 3 -4 -5 5 -9 2
-9 -14 0 -16 10 -19 19 -13 39 11 40 5 119 -12 145 -14 22 -14 23 32 38 63 21
64 21 105 -11z m171 -124 c37 -30 39 -31 52 -13 8 10 14 15 14 10 0 -5 -11
-20 -24 -34 -14 -15 -36 -50 -51 -78 -14 -29 -29 -53 -32 -53 -13 0 -53 56
-59 83 -8 39 29 116 56 117 3 0 23 -14 44 -32z m258 -10 c61 -37 178 -149 178
-170 0 -17 -76 -62 -90 -53 -5 3 -10 12 -10 18 0 7 -23 35 -50 62 -28 27 -48
56 -45 63 2 7 1 10 -5 7 -5 -3 -27 7 -49 22 -40 28 -55 50 -25 39 10 -4 13 -2
8 6 -4 6 1 17 11 25 23 16 15 18 77 -19z m-1947 -104 c14 -14 31 -16 113 -10
53 3 116 9 140 12 79 11 151 -16 85 -32 -33 -9 -42 -8 -226 2 -81 5 -147 5
-147 0 0 -4 -7 -6 -15 -2 -8 3 -21 -1 -28 -9 -12 -11 -16 -8 -31 21 -9 19 -16
36 -16 38 0 2 18 6 39 10 23 3 42 13 46 23 6 15 9 14 15 -9 5 -15 16 -35 25
-44z m1875 -53 c44 -44 80 -82 80 -85 0 -8 -70 -8 -111 1 -29 5 -30 7 -14 15
14 6 11 7 -13 3 -23 -3 -31 -1 -26 7 4 7 3 8 -5 4 -15 -10 -71 3 -71 16 0 6 7
8 15 5 8 -4 17 -1 21 5 4 7 3 8 -4 4 -20 -12 -13 15 16 60 15 24 28 43 29 44
2 0 39 -36 83 -79z m-2070 40 c0 -5 13 -31 29 -58 51 -83 50 -86 -25 -117 -63
-25 -101 -27 -60 -2 10 6 31 21 46 34 15 12 33 22 39 22 14 0 14 13 -1 45 -10
22 -16 25 -37 20 -15 -3 -34 -7 -43 -8 -9 -1 -16 -5 -15 -9 1 -4 -14 -18 -34
-30 -42 -27 -119 -113 -119 -134 0 -8 -4 -14 -9 -14 -5 0 -8 -8 -7 -17 0 -10
-5 -18 -11 -17 -7 1 -41 2 -75 4 -54 2 -58 4 -26 9 36 6 67 34 81 74 4 10 12
15 17 12 6 -4 9 -3 8 2 -5 16 47 83 60 78 7 -3 10 -1 7 5 -3 5 7 16 22 24 15
8 24 15 19 16 -10 0 69 53 94 63 23 9 40 8 40 -2z m1555 -238 c25 -17 55 -16
79 2 24 18 36 19 36 3 0 -7 -20 -21 -44 -31 -43 -18 -46 -18 -73 0 -15 9 -30
20 -33 24 -3 3 -14 9 -26 13 -20 6 -22 0 -43 -151 -13 -87 -25 -167 -28 -177
-5 -17 -1 -18 26 -12 90 18 84 19 114 -19 35 -44 26 -62 -9 -21 -25 28 -25 28
-86 16 -33 -6 -61 -10 -63 -8 -2 2 10 91 26 198 16 107 29 201 29 208 0 13 29
-1 95 -45z m405 -73 c0 -10 -9 -43 -20 -71 -12 -28 -19 -56 -18 -60 2 -5 32 5
66 21 66 31 82 35 82 23 0 -5 -38 -25 -84 -46 l-84 -39 -38 -114 c-21 -63 -42
-114 -47 -114 -5 0 -6 7 -3 15 3 9 20 61 37 116 l31 101 -18 41 c-10 23 -28
59 -41 79 -24 39 -29 58 -15 58 8 0 33 -41 65 -105 l20 -40 13 30 c7 17 18 51
25 78 13 48 29 63 29 27z m-1921 -97 c7 -21 34 -85 59 -143 66 -152 91 -220
84 -220 -4 0 -18 25 -32 56 -24 54 -28 58 -105 94 -95 46 -111 50 -107 30 2
-8 28 -64 58 -123 31 -60 54 -113 52 -119 -2 -6 -30 40 -62 103 -32 63 -78
151 -103 197 -28 52 -40 82 -31 82 7 -1 22 -19 33 -42 11 -23 27 -45 35 -49
39 -20 171 -79 175 -79 13 0 2 35 -34 112 -43 91 -58 138 -44 138 5 0 15 -17
22 -37z"/>
<path d="M2066 6683 c-9 -27 -61 -85 -69 -76 -4 3 -7 1 -7 -5 0 -7 -4 -12 -10
-12 -20 0 -10 38 12 43 12 4 19 9 16 13 -13 13 -46 -8 -51 -31 -2 -14 0 -25 4
-25 5 0 9 -6 9 -12 0 -15 -132 -108 -152 -108 -10 0 -9 3 2 11 12 8 10 9 -10
5 -14 -3 -36 -6 -50 -7 -23 -1 -23 -2 5 -9 17 -4 22 -8 12 -9 -25 -1 -17 -36
8 -36 11 0 20 -7 20 -15 0 -10 -8 -14 -25 -12 -19 1 -21 0 -11 -7 12 -8 8 -11
-15 -16 -16 -4 -42 -11 -59 -15 -16 -5 -48 -11 -70 -14 -22 -4 -76 -14 -120
-24 -69 -15 -85 -23 -127 -62 -26 -25 -56 -63 -67 -85 -20 -39 -20 -40 -14 -7
3 19 1 32 -5 32 -6 0 -12 -3 -14 -7 -5 -12 -75 -63 -85 -63 -5 0 -22 -13 -38
-30 -15 -16 -32 -27 -37 -24 -5 3 -7 1 -6 -3 4 -11 -58 -83 -65 -77 -3 3 -4
-2 -3 -10 1 -16 -63 -115 -76 -116 -4 0 -9 10 -11 23 -2 12 -4 5 -4 -15 0 -21
4 -35 10 -31 5 3 7 0 4 -8 -3 -8 -14 -38 -23 -66 -10 -29 -22 -53 -27 -53 -5
0 -7 -7 -3 -15 6 -18 -3 -47 -13 -40 -5 2 -23 -11 -41 -30 -19 -19 -39 -35
-45 -35 -6 0 -11 -10 -12 -22 -1 -11 -6 -24 -10 -27 -14 -11 -57 -100 -51
-106 3 -4 24 3 46 14 29 15 49 36 68 71 27 50 44 63 44 35 0 -19 24 -19 40 0
6 8 15 14 18 13 4 -1 19 5 35 12 24 12 27 19 27 62 0 34 4 48 14 48 7 0 30 11
50 25 34 23 36 23 36 5 0 -11 6 -20 13 -20 18 0 60 48 52 60 -3 5 0 10 9 10 8
0 28 12 45 26 37 31 43 74 10 74 -19 0 -19 2 7 29 15 16 33 27 41 24 9 -4 13
5 13 30 0 42 16 75 54 110 20 19 24 27 13 27 -9 0 -14 7 -12 18 2 9 4 20 4 23
2 12 60 16 71 5 8 -8 9 -6 5 5 -5 13 2 18 30 23 19 4 33 11 30 15 -8 14 53 34
89 28 18 -3 38 -2 45 2 21 13 -14 33 -71 40 l-53 6 101 23 c55 12 109 20 120
16 16 -5 16 -4 4 5 -13 9 -13 11 1 11 8 0 21 -6 28 -12 12 -11 13 -10 7 6 -5
14 -2 17 9 12 8 -3 15 -2 15 2 0 7 48 32 61 32 4 0 9 -14 11 -32 3 -30 28 -54
28 -27 0 14 49 93 102 164 21 28 38 59 39 70 0 19 1 19 8 1 5 -14 10 -16 15
-7 4 6 2 19 -6 28 -9 12 -9 15 -1 9 9 -5 12 -1 11 11 -1 10 3 38 11 62 8 28 9
47 3 53 -7 7 -12 3 -16 -9z"/>
<path d="M1497 6161 c-63 -44 -177 -157 -177 -174 0 -8 3 -7 9 2 6 9 10 3 13
-20 4 -28 0 -38 -23 -60 -19 -18 -29 -37 -29 -56 0 -22 -15 -43 -68 -93 -37
-37 -85 -79 -107 -95 -22 -16 -47 -37 -56 -47 -9 -10 -32 -29 -50 -41 -19 -13
-56 -39 -84 -58 -27 -19 -63 -41 -80 -49 -16 -8 -43 -24 -60 -36 -16 -11 -66
-36 -110 -54 -44 -18 -85 -38 -92 -42 -13 -10 -85 0 -78 11 2 4 -14 7 -36 7
-54 0 -49 -13 9 -21 26 -4 52 -8 57 -10 11 -3 -29 -21 -90 -40 -39 -12 -40
-12 -41 10 -1 18 2 22 15 17 14 -5 14 -4 2 12 -8 9 -17 13 -20 9 -10 -13 -42
-15 -55 -3 -10 7 -21 7 -37 0 -23 -10 -23 -10 -2 -6 13 2 26 0 29 -5 3 -5 -1
-9 -8 -10 -7 0 -2 -5 11 -10 18 -7 27 -6 32 3 6 9 11 10 19 2 16 -16 -17 -49
-35 -34 -7 6 -21 7 -31 3 -17 -6 -16 -7 2 -13 15 -6 10 -10 -26 -20 -60 -16
-188 -39 -224 -40 -28 0 -28 0 -24 -55 3 -30 1 -55 -4 -55 -4 0 -8 14 -8 30 0
17 -4 30 -10 30 -15 0 0 -63 21 -81 10 -9 21 -29 25 -45 l6 -29 -18 25 c-10
14 -21 27 -24 30 -4 3 -10 14 -14 25 -5 12 -10 15 -13 8 -6 -16 48 -92 65 -93
6 0 12 -6 12 -14 0 -7 13 -40 29 -72 78 -158 85 -179 74 -217 -7 -25 -13 -16
-20 25 -2 18 -8 37 -13 41 -9 10 6 -78 16 -94 7 -12 30 17 35 45 3 13 16 0 49
-50 79 -119 85 -127 187 -231 55 -56 98 -105 94 -109 -3 -4 0 -4 7 0 6 4 19 0
28 -8 38 -39 165 -113 259 -151 67 -28 216 -63 295 -70 143 -12 374 33 615
122 219 81 235 91 202 134 -89 117 -162 195 -195 207 -15 6 -63 18 -107 27
-186 39 -301 138 -365 314 -76 209 7 466 211 655 33 31 68 56 78 56 9 0 23 6
30 13 13 13 23 4 86 -88 66 -95 115 -160 155 -207 22 -26 40 -51 40 -56 0 -5
13 -22 28 -38 15 -17 42 -50 59 -74 17 -25 41 -54 53 -65 12 -11 30 -36 40
-56 11 -20 30 -43 44 -53 14 -9 26 -23 26 -30 0 -7 18 -31 40 -52 22 -22 40
-44 40 -51 0 -6 30 -45 68 -86 37 -41 110 -125 162 -187 117 -138 186 -216
223 -248 32 -30 33 -39 9 -66 -29 -32 -116 -183 -155 -268 -49 -105 -81 -196
-110 -313 -41 -166 -48 -214 -54 -363 -5 -132 -7 -144 -27 -154 -30 -16 -36
-28 -36 -79 0 -31 6 -55 20 -72 11 -14 20 -29 20 -34 0 -7 -138 -135 -252
-234 -41 -36 -197 -177 -258 -234 -36 -33 -87 -80 -115 -104 -27 -24 -61 -53
-75 -65 -266 -233 -519 -479 -707 -689 -17 -19 -34 -32 -37 -29 -3 3 -6 -4 -6
-15 0 -11 -16 -40 -35 -64 -19 -24 -35 -55 -35 -69 0 -20 -2 -22 -10 -10 -12
19 -13 6 -1 -18 17 -35 30 -84 24 -98 -3 -9 0 -12 9 -9 21 8 41 -41 42 -104 1
-48 3 -54 24 -57 14 -3 21 0 17 6 -3 5 -2 10 3 10 5 0 22 -19 37 -42 15 -24
37 -53 49 -66 16 -18 18 -25 7 -31 -10 -6 -9 -10 4 -14 9 -4 14 -3 11 1 -3 5
9 9 25 9 17 0 34 5 39 13 4 7 13 9 20 5 7 -4 11 -2 9 6 -4 33 2 51 14 46 8 -3
20 -1 28 5 11 8 10 9 -4 4 -14 -4 -12 2 10 32 15 20 34 44 43 53 8 10 31 36
50 60 74 91 236 278 310 359 42 47 99 110 125 140 81 92 477 483 551 543 38
31 80 68 93 82 28 30 41 32 41 6 0 -38 73 -258 112 -335 113 -226 287 -404
494 -506 49 -24 118 -51 154 -60 57 -15 65 -21 68 -43 5 -37 67 -105 110 -118
22 -6 93 -9 174 -7 120 3 140 6 165 24 38 28 73 81 73 110 0 17 6 24 18 24 55
0 268 95 329 147 14 13 29 23 32 23 4 0 41 33 83 73 181 172 299 392 354 657
10 47 19 87 20 89 3 4 41 -29 274 -238 110 -99 261 -249 419 -416 173 -185
218 -234 306 -340 27 -33 68 -80 90 -103 22 -24 44 -50 48 -58 4 -8 19 -27 33
-42 34 -36 44 -49 85 -102 19 -25 37 -47 42 -48 4 -2 4 -9 0 -15 -4 -7 0 -8
11 -4 15 6 17 4 11 -10 -16 -41 -17 -48 -2 -31 18 23 30 23 23 0 -5 -15 0 -18
32 -20 33 -2 41 2 73 40 19 24 44 59 55 78 10 19 22 37 26 40 11 8 68 124 68
137 0 7 5 13 10 13 6 0 10 9 10 19 0 11 4 22 9 25 12 8 2 86 -15 113 -8 12
-11 30 -8 40 4 12 3 14 -3 6 -8 -11 -52 36 -121 130 -39 54 -449 454 -608 593
-82 72 -167 148 -189 169 -36 33 -125 113 -181 162 -63 55 -172 153 -204 183
-75 71 -203 185 -217 193 -10 6 -12 20 -7 52 9 61 -2 100 -31 113 -24 11 -25
16 -25 100 0 93 -13 224 -31 307 -38 177 -125 420 -188 525 -11 19 -30 53 -42
75 -12 22 -37 58 -55 81 l-33 40 55 55 c31 30 90 95 132 144 42 50 78 92 81
95 3 3 24 28 46 55 22 28 70 83 107 123 38 40 68 79 68 87 0 7 13 23 29 34 15
11 34 34 41 50 7 17 27 42 46 56 19 14 34 33 34 41 0 8 20 37 45 63 25 26 45
52 45 58 0 5 18 27 40 48 22 21 40 45 40 51 0 7 26 43 59 81 32 37 65 82 74
98 9 17 27 42 40 56 14 14 32 39 41 55 28 52 66 88 79 75 6 -6 21 -11 32 -11
25 0 158 -133 195 -195 13 -22 26 -42 29 -45 9 -8 37 -70 62 -135 19 -49 23
-81 23 -170 1 -103 -1 -115 -33 -193 -67 -162 -174 -246 -375 -292 -87 -19
-105 -27 -136 -59 -66 -66 -160 -184 -160 -201 0 -20 14 -27 182 -90 272 -103
495 -150 646 -135 75 7 228 40 254 55 10 6 23 10 30 10 21 0 144 66 222 117
39 26 104 80 143 119 40 39 75 69 78 66 3 -3 5 2 5 10 0 9 7 22 17 29 30 26
163 207 163 224 0 6 16 32 35 59 19 27 35 57 35 65 0 14 1 14 10 1 6 -9 10
-10 10 -3 0 6 3 19 7 29 5 13 3 15 -8 10 -8 -4 -6 -1 3 6 9 8 20 31 23 52 7
32 11 37 29 32 11 -3 27 -6 34 -6 6 0 12 -9 12 -20 0 -27 17 -25 22 3 6 33 -2
57 -18 57 -8 0 -14 9 -14 20 0 11 4 20 9 20 9 0 34 60 27 67 -2 2 -11 -12 -20
-30 -20 -43 -46 -67 -46 -44 0 9 8 20 17 26 13 7 14 13 6 23 -12 15 -5 88 8
88 5 0 9 12 8 28 l-1 27 -8 -25 -8 -25 -1 25 c-1 18 -4 21 -10 12 -6 -10 -23
-12 -67 -7 -60 8 -88 20 -78 36 3 5 -2 6 -11 2 -13 -5 -14 -8 -3 -15 26 -17
-67 4 -114 26 -26 12 -45 19 -42 15 5 -8 -32 2 -89 23 -21 8 -25 13 -15 20 9
7 3 8 -17 5 -20 -4 -53 5 -100 25 -72 31 -111 57 -65 43 22 -7 23 -6 8 9 -18
17 -53 23 -43 6 8 -12 -23 -1 -82 30 -24 12 -40 26 -37 32 3 5 0 8 -7 7 -8 -2
-28 5 -46 14 -39 21 -184 124 -198 140 -5 7 -25 23 -43 36 -19 13 -67 57 -108
97 -57 57 -74 80 -74 102 0 17 -10 38 -25 52 -17 16 -25 34 -24 54 0 26 2 28
9 11 8 -19 9 -19 9 1 1 23 -78 110 -159 175 -45 36 -113 58 -124 40 -3 -5 -24
-7 -45 -4 -43 6 -35 12 -136 -98 -134 -143 -154 -179 -119 -214 16 -15 14 -19
-20 -54 -20 -20 -36 -41 -36 -45 0 -9 -14 -27 -118 -152 -37 -45 -85 -105
-107 -134 -22 -29 -61 -78 -88 -109 -26 -31 -73 -86 -105 -124 -31 -37 -73
-86 -93 -110 -20 -23 -42 -54 -50 -68 -8 -15 -99 -122 -204 -240 -104 -117
-204 -228 -220 -247 l-30 -34 -40 23 c-45 25 -78 56 -88 82 -4 9 -15 20 -24
23 -63 20 -87 36 -161 108 -45 44 -82 87 -82 97 0 26 -57 69 -92 69 -37 0 -98
-43 -98 -70 0 -10 -28 -45 -62 -78 -91 -87 -105 -98 -141 -112 -73 -27 -77
-30 -77 -52 0 -17 -15 -31 -56 -56 l-56 -32 -62 67 c-35 38 -103 113 -152 169
-49 55 -118 134 -154 174 -36 40 -80 96 -98 124 -19 28 -42 56 -53 64 -10 7
-19 19 -19 25 0 7 -21 33 -46 57 -25 25 -56 61 -69 80 -12 19 -40 54 -61 76
-22 23 -55 63 -74 89 -19 26 -55 72 -80 100 -78 92 -90 107 -90 114 0 4 -13
20 -30 36 -16 16 -30 34 -30 40 0 6 -10 21 -22 33 -47 43 -51 51 -34 68 9 8
16 23 16 33 0 21 -48 88 -117 161 -28 30 -64 70 -81 89 -27 31 -33 33 -71 28
-22 -3 -44 -1 -47 4 -11 19 -53 7 -107 -30z m-807 -1081 c0 -18 -7 -20 -62
-20 -56 0 -164 -18 -221 -36 -14 -5 -18 -3 -12 7 6 11 5 11 -4 3 -26 -24 49
-90 115 -101 25 -4 34 -11 34 -25 0 -17 -5 -19 -26 -14 -14 4 -44 19 -67 33
-23 15 -43 26 -45 24 -4 -3 -72 53 -72 60 0 8 42 26 125 54 92 31 99 32 173
34 56 1 62 -1 62 -19z m5354 -450 c-6 -6 -41 -16 -77 -22 -65 -11 -66 -11 -72
-48 -7 -42 -54 -104 -93 -124 -32 -16 -102 -30 -102 -20 0 4 15 26 33 50 34
46 64 64 102 64 21 0 25 6 31 48 l6 49 47 -5 c25 -2 62 1 81 6 47 14 56 14 44
2z m-2354 -610 c-7 -278 -16 -584 -20 -680 -6 -141 -7 -118 -4 120 8 501 27
1177 33 1110 2 -25 -2 -272 -9 -550z m-452 476 c3 17 82 104 95 104 7 0 -2
-14 -20 -30 -18 -17 -44 -46 -58 -65 l-27 -34 6 -168 c14 -378 16 -452 20
-783 l5 -345 -13 375 c-16 462 -26 1076 -17 995 4 -33 8 -55 9 -49z m-488
-1962 c36 -13 79 -33 95 -44 31 -21 45 -32 223 -177 113 -92 159 -123 185
-123 14 0 17 -8 16 -42 -1 -66 -15 -208 -22 -214 -18 -18 -277 69 -382 128
-38 22 -96 65 -128 96 -59 58 -123 140 -114 148 2 2 16 -13 30 -33 46 -69 189
-204 202 -191 2 2 -16 29 -41 58 -97 119 -189 292 -211 400 l-6 32 44 -7 c24
-3 73 -17 109 -31z m1580 21 c0 -21 -57 -160 -96 -236 -19 -36 -64 -103 -100
-148 -37 -45 -64 -84 -62 -86 2 -3 31 18 65 45 71 57 161 173 193 248 13 29
24 51 27 49 7 -8 -37 -98 -76 -155 -63 -91 -130 -154 -216 -204 -83 -48 -255
-112 -336 -123 l-46 -7 -6 93 c-11 154 -11 153 26 167 17 7 106 73 197 147
179 146 250 190 344 210 80 18 86 18 86 0z"/>
<path d="M3270 5844 c-14 -2 -65 -9 -115 -15 -138 -16 -227 -38 -420 -101
-133 -43 -495 -225 -495 -248 0 -17 47 -75 63 -78 9 -2 54 19 99 46 46 28 124
69 173 92 112 52 358 135 445 150 36 6 88 15 115 20 225 42 557 31 802 -25 89
-20 273 -81 343 -113 30 -13 80 -36 110 -49 30 -14 92 -47 136 -74 45 -27 88
-49 96 -49 18 0 54 38 62 66 5 17 -6 27 -71 66 -368 217 -747 320 -1163 317
-85 -1 -166 -3 -180 -5z"/>
<path d="M3587 5632 c-32 -36 -16 -92 26 -92 16 0 19 5 14 30 -5 21 -3 30 7
30 7 0 16 -15 19 -32 4 -18 9 -44 12 -58 5 -19 4 -21 -4 -10 -9 12 -18 11 -73
-8 -34 -13 -72 -32 -84 -43 -19 -18 -23 -18 -56 -5 -71 30 -388 51 -388 26 0
-5 24 -10 54 -10 73 0 147 -11 140 -21 -2 -4 -11 -6 -19 -2 -10 3 -15 -1 -15
-15 0 -18 6 -21 44 -19 39 2 45 -1 49 -20 4 -20 3 -21 -17 -8 -42 30 -123 13
-146 -30 -11 -20 -10 -30 8 -65 14 -29 15 -37 5 -28 -19 15 -37 58 -34 78 4
21 32 51 59 61 17 6 22 16 20 32 -3 20 -9 22 -74 25 -71 3 -71 3 -84 -27 -16
-39 -7 -63 22 -61 42 4 54 -1 29 -11 -21 -8 -23 -14 -18 -48 4 -31 2 -38 -9
-34 -19 7 -19 -41 1 -57 16 -13 20 -30 7 -30 -5 0 -18 18 -31 40 -42 74 -71
45 -71 -71 l0 -48 103 5 c56 3 112 11 125 17 31 15 24 40 -13 47 -35 7 -85 38
-85 51 0 5 13 0 28 -11 35 -26 103 -43 116 -30 6 6 19 10 31 10 17 -1 16 -3
-7 -16 -16 -8 -28 -17 -28 -21 0 -3 15 -25 33 -49 68 -90 120 -96 231 -26 42
26 76 53 76 60 0 8 9 10 28 6 24 -6 25 -5 12 9 -21 22 -112 68 -119 61 -3 -4
1 -11 10 -17 14 -9 7 -15 -42 -39 -65 -32 -85 -31 -124 8 -13 13 -29 24 -35
24 -15 0 -12 28 4 37 7 4 18 26 24 48 l12 40 -5 -43 c-4 -33 -2 -44 11 -49 9
-3 20 0 25 8 6 10 9 5 9 -18 0 -17 3 -38 6 -47 7 -17 44 -22 44 -6 0 6 6 10
14 10 9 0 16 16 21 48 6 47 43 141 44 112 0 -8 -6 -26 -14 -40 -22 -38 -18
-47 28 -69 23 -11 58 -30 79 -43 34 -21 39 -22 85 -9 26 7 56 13 66 13 21 -1
21 0 2 45 -15 35 -15 38 6 57 19 18 21 19 16 3 -9 -23 33 -40 91 -35 48 4 50
1 22 -35 -23 -28 -26 -70 -7 -84 6 -6 27 -15 45 -21 32 -11 34 -10 82 41 53
56 62 77 31 77 -10 0 -21 7 -25 15 -4 11 1 15 17 15 51 0 64 63 22 105 -33 34
-55 32 -55 -4 0 -17 5 -33 10 -36 15 -9 1 -27 -16 -21 -19 7 -28 -12 -14 -29
10 -12 10 -18 -1 -31 -11 -14 -10 -18 6 -30 18 -14 18 -14 -3 -14 -18 0 -22 6
-22 29 0 16 -5 31 -12 33 -8 3 -5 13 10 33 29 37 30 112 2 148 -35 44 -126 82
-196 82 l-61 0 -11 40 c-20 76 -86 111 -125 67z"/>
<path d="M3094 5605 c-29 -12 -56 -31 -61 -40 -10 -16 -12 -16 -36 -1 -36 24
-118 18 -132 -9 -8 -17 -15 -19 -36 -11 -33 11 -122 -1 -116 -17 7 -22 143
-81 207 -91 27 -4 38 -16 33 -36 -7 -25 -15 -25 -31 1 -16 25 -55 22 -60 -4
-3 -12 16 -37 52 -70 51 -48 54 -53 41 -71 -20 -26 -22 -180 -2 -174 8 3 13
33 15 93 3 101 15 119 70 110 29 -5 32 -4 32 20 0 23 -4 25 -41 25 -44 0 -79
14 -79 32 0 7 5 6 15 -2 27 -23 54 -2 71 56 15 53 15 67 -1 107 -6 13 -3 16 9
11 9 -3 14 -10 11 -14 -12 -19 18 -19 74 0 72 24 117 26 125 5 9 -23 46 -19
46 5 0 17 3 19 19 10 11 -5 26 -16 34 -24 7 -8 35 -21 62 -30 43 -15 50 -15
71 -1 13 8 24 25 24 37 0 18 -4 20 -37 15 -31 -5 -49 1 -123 43 -77 45 -92 50
-145 49 -41 0 -77 -8 -111 -24z"/>
<path d="M3975 5592 c-11 -2 -26 -9 -34 -15 -7 -6 -23 -16 -35 -22 -11 -6 -21
-17 -21 -25 0 -24 32 -23 67 1 l33 23 -25 -28 c-21 -23 -22 -29 -10 -36 21
-14 37 -12 43 4 6 14 104 52 113 43 3 -2 -6 -7 -20 -11 -33 -8 -44 -57 -22
-91 13 -20 25 -25 60 -25 59 0 86 25 86 78 0 33 -5 45 -24 57 -32 21 -113 30
-161 16 -40 -10 -40 -10 -16 8 22 17 22 18 5 23 -11 2 -28 2 -39 0z"/>
<path d="M1575 5571 c-39 -10 -132 -105 -193 -195 -43 -66 -96 -192 -86 -208
4 -6 90 22 116 38 4 3 8 -33 8 -80 0 -99 -11 -92 119 -76 53 7 88 7 93 2 12
-12 -17 -18 -119 -27 -40 -4 -73 -10 -73 -15 0 -4 30 -27 67 -50 37 -24 61
-46 55 -48 -7 -2 -51 24 -97 57 -47 34 -89 61 -93 61 -4 0 -25 14 -47 31 l-40
30 -3 -46 c-2 -25 2 -71 8 -101 10 -45 15 -54 33 -54 17 0 19 -2 8 -9 -23 -15
13 -83 79 -153 59 -61 74 -69 85 -40 8 22 102 179 127 212 65 88 168 213 211
257 50 51 50 52 33 77 -16 26 -17 26 -160 26 -162 0 -156 -3 -156 78 0 83 13
212 21 212 4 0 5 -60 2 -134 l-6 -134 124 -4 c68 -2 126 -3 128 -1 6 5 -28 65
-44 78 -7 6 -27 34 -44 63 -18 28 -36 52 -39 52 -4 0 -23 25 -41 55 -19 30
-37 55 -40 54 -4 -1 -20 -4 -36 -8z"/>
<path d="M5311 5571 c-13 -9 -13 -26 4 -92 6 -23 4 -24 -42 -21 -48 4 -49 3
-71 -38 -14 -27 -20 -50 -16 -66 5 -21 3 -24 -21 -24 -29 0 -39 -9 -85 -79
l-30 -44 68 -71 c37 -40 87 -98 111 -131 25 -33 57 -76 72 -96 28 -36 135
-213 142 -233 4 -12 95 62 123 101 27 38 76 163 70 179 -3 7 -20 16 -39 19
-30 6 -45 0 -122 -50 -48 -31 -90 -54 -93 -51 -3 4 -3 8 -1 10 14 13 215 144
240 156 30 15 31 15 25 79 -3 36 -10 69 -15 74 -6 6 -27 -3 -58 -26 -172 -126
-264 -189 -269 -184 -3 2 58 51 135 108 77 57 141 107 141 110 0 4 -25 10 -55
14 l-55 6 0 60 c0 32 -3 59 -6 59 -3 0 -20 -12 -38 -26 -75 -62 -133 -112
-178 -153 -27 -24 -51 -42 -53 -39 -7 6 283 268 296 268 3 0 3 -33 1 -74 l-4
-74 62 -7 c33 -4 63 -5 65 -3 9 9 -47 124 -86 174 -61 79 -145 164 -163 164
-8 0 -20 2 -28 5 -7 3 -19 1 -27 -4z"/>
<path d="M4276 5473 c8 -36 76 -187 86 -191 14 -6 9 -30 -7 -36 -9 -3 -15 -18
-15 -36 0 -29 10 -36 48 -31 6 1 12 -5 12 -14 0 -8 4 -15 9 -15 13 0 33 28 27
38 -3 5 6 15 21 23 28 15 53 63 53 101 0 59 -81 124 -118 95 -9 -7 -14 -1 -19
23 -6 31 -7 32 -20 15 -12 -18 -13 -17 -13 6 0 18 -8 29 -25 37 -39 18 -46 15
-39 -15z"/>
<path d="M2559 5461 c-29 -18 -54 -44 -68 -72 -22 -43 -22 -43 -15 -9 6 34 6
34 -17 19 -14 -10 -28 -34 -36 -65 -16 -62 -16 -74 0 -74 7 0 19 -16 27 -35
12 -31 18 -35 50 -35 63 0 103 -46 64 -75 -20 -14 -11 -50 13 -59 25 -10 64
34 70 81 5 36 8 39 29 35 15 -3 24 -11 24 -23 0 -13 7 -19 21 -19 11 0 17 -4
14 -10 -9 -15 -22 -12 -44 11 l-19 21 -11 -20 c-16 -30 -13 -84 5 -110 19 -27
49 -28 90 -3 l31 19 -5 74 c-2 40 -6 75 -8 77 -2 2 -11 0 -21 -4 -36 -16 -46
-14 -29 4 20 21 21 65 3 80 -22 18 -73 24 -96 11 -19 -9 -20 -14 -10 -27 7 -8
23 -19 36 -24 27 -10 30 -26 6 -31 -10 -2 -32 13 -52 35 -34 38 -36 38 -97 35
l-62 -3 5 35 c8 46 13 51 13 12 0 -25 4 -32 20 -32 14 0 21 9 25 38 10 57 13
65 40 97 l25 30 -14 -29 c-23 -47 -1 -86 49 -86 46 0 75 27 82 76 4 34 1 45
-18 63 -31 29 -66 27 -120 -8z"/>
<path d="M4280 5225 c0 -78 -2 -85 -20 -85 -26 0 -135 -104 -125 -120 4 -6 13
-9 21 -6 8 3 14 1 14 -4 0 -5 18 -22 41 -37 31 -20 45 -24 57 -17 15 10 41 89
42 127 0 30 -28 31 -68 2 l-37 -28 34 36 c41 44 68 47 96 11 14 -17 26 -23 38
-19 25 10 21 30 -14 59 -28 24 -30 31 -29 83 2 83 2 83 -25 83 -25 0 -25 -1
-25 -85z"/>
<path d="M1810 5112 c-117 -130 -310 -408 -310 -447 0 -16 75 -49 94 -42 8 3
34 39 57 79 39 67 106 166 119 178 3 3 17 21 30 40 32 45 55 74 108 129 23 25
42 53 42 63 0 18 -46 78 -60 78 -5 0 -41 -35 -80 -78z"/>
<path d="M5006 5159 c-14 -17 -26 -38 -26 -47 0 -9 20 -38 43 -63 106 -115
219 -272 277 -381 15 -29 32 -48 42 -48 26 0 88 32 88 45 0 19 -108 193 -173
280 -69 92 -205 245 -217 245 -5 0 -20 -14 -34 -31z"/>
<path d="M3719 5160 c-21 -6 -110 -51 -152 -77 -14 -9 15 -33 40 -33 13 0 35
7 48 16 25 16 25 16 25 -16 0 -32 -1 -32 -37 -26 -50 9 -93 26 -93 37 0 13
-33 10 -52 -5 -10 -7 -18 -18 -18 -24 0 -20 73 -53 130 -59 50 -5 59 -9 62
-28 5 -22 -5 -25 -64 -16 -5 1 -8 7 -8 15 0 15 -37 32 -47 22 -9 -8 17 -36 33
-36 8 0 17 -14 21 -31 3 -17 12 -33 19 -36 18 -7 54 15 54 32 0 8 5 15 11 15
7 0 8 -7 4 -17 -20 -48 -22 -92 -5 -108 25 -22 40 -18 40 10 0 14 7 41 15 61
8 19 17 53 19 76 5 38 16 66 16 40 0 -14 27 -16 32 -4 2 5 29 6 60 2 l58 -6 6
48 c4 27 11 51 15 54 16 9 9 34 -9 34 -10 0 -28 7 -40 16 -13 9 -26 14 -29 11
-10 -11 9 -49 30 -56 18 -7 15 -9 -18 -15 -22 -4 -48 -15 -57 -23 -17 -15 -18
-14 -18 20 0 26 4 37 15 37 8 0 22 14 31 31 13 26 14 33 2 40 -16 11 -104 10
-139 -1z"/>
<path d="M2981 5076 c-48 -13 -60 -28 -40 -52 9 -11 22 -14 47 -9 23 4 32 3
27 -4 -3 -6 -15 -11 -26 -11 -23 0 -23 -3 -4 -75 27 -104 115 -241 115 -179 0
11 5 14 16 10 19 -7 124 39 124 55 0 6 5 7 10 4 6 -3 10 3 10 14 0 11 -4 22
-9 26 -9 5 -33 73 -45 128 -4 15 -11 27 -16 27 -6 0 -11 -12 -11 -27 l-1 -28
-7 30 c-5 25 -12 31 -46 36 -22 4 -53 5 -70 2 l-30 -4 25 15 c28 16 78 9 152
-22 20 -8 47 -12 60 -9 19 5 17 1 -11 -22 -35 -29 -35 -29 -17 -56 16 -25 19
-25 35 -11 10 9 24 16 32 16 8 0 25 9 38 19 24 18 24 20 8 45 -10 14 -26 26
-36 26 -10 0 -21 8 -23 18 -12 44 -197 68 -307 38z"/>
<path d="M4090 5005 c-16 -19 -4 -52 22 -60 15 -5 17 -10 9 -18 -9 -9 -14 -8
-21 2 -11 19 -33 2 -50 -39 -7 -17 -16 -30 -20 -30 -4 0 -15 -24 -23 -52 -19
-59 -32 -138 -24 -138 10 0 54 26 68 40 57 60 139 159 139 168 0 6 -12 19 -27
27 -16 9 -20 14 -10 11 57 -18 67 -18 74 0 7 19 -18 42 -86 81 -33 19 -41 20
-51 8z"/>
<path d="M4928 4949 c-23 -13 -24 -67 -2 -76 11 -4 23 2 34 17 29 38 31 7 3
-40 -15 -24 -28 -39 -31 -32 -5 15 -95 62 -119 62 -20 0 -73 -48 -73 -67 0 -9
11 -13 33 -12 28 2 137 -27 137 -36 0 -2 -10 -20 -22 -40 -17 -31 -19 -38 -7
-46 10 -6 5 -9 -17 -9 -30 0 -32 3 -46 57 -21 89 -38 78 -20 -14 12 -62 12
-89 3 -134 -20 -98 -8 -120 19 -36 8 27 17 37 28 34 10 -2 16 -9 14 -16 -8
-39 80 -121 129 -121 30 0 36 5 84 59 35 38 39 48 37 90 l-2 47 38 -5 37 -6
-33 -3 c-25 -2 -32 -8 -30 -20 6 -34 101 -22 115 14 4 11 -1 23 -15 34 -26 22
-115 37 -120 21 -2 -6 -16 6 -31 26 -16 21 -38 47 -50 57 -21 19 -22 19 -36 0
-20 -27 -19 -39 11 -84 15 -22 24 -43 21 -46 -3 -3 -8 4 -12 15 -5 17 -15 21
-45 21 l-39 0 28 53 c15 28 40 70 54 91 35 51 37 118 5 140 -26 18 -55 20 -80
5z"/>
<path d="M3844 4933 c-9 -27 -58 -126 -69 -141 -5 -7 -16 -20 -24 -28 -15 -17
-15 -17 16 -33 46 -23 58 -15 102 72 23 45 49 93 56 107 17 30 6 40 -43 40
-22 0 -34 -6 -38 -17z"/>
<path d="M1993 4924 c-115 -25 -185 -94 -199 -197 -6 -43 -5 -47 14 -47 11 0
27 -3 36 -6 10 -4 19 2 26 17 5 13 22 47 38 74 26 44 33 50 60 49 19 -1 33 4
36 13 10 25 -5 35 -40 30 -19 -3 -34 -2 -34 2 0 4 37 13 82 19 87 13 104 21
95 46 -7 19 -30 19 -114 0z"/>
<path d="M2087 4851 c-52 -39 -217 -194 -217 -203 0 -18 21 -4 88 62 39 39 77
70 83 70 7 0 2 -8 -9 -19 -12 -10 -22 -23 -22 -30 0 -6 -4 -10 -9 -8 -4 1 -30
-19 -58 -44 -42 -39 -48 -50 -41 -69 13 -36 4 -33 -30 9 -36 45 -76 58 -127
41 -36 -12 -64 -46 -48 -60 4 -4 20 -10 35 -14 21 -5 28 -2 33 15 5 14 10 18
17 11 6 -6 16 -8 23 -6 13 5 17 -25 4 -41 -12 -16 45 -65 75 -65 22 0 26 4 26
29 0 22 6 30 25 35 14 4 25 13 25 20 0 8 10 16 22 18 17 2 24 12 30 42 10 46
38 96 55 96 6 0 16 7 21 15 6 12 14 14 33 6 18 -7 19 -10 6 -10 -52 -2 -120
-83 -104 -125 4 -10 -1 -20 -13 -26 -11 -6 -20 -17 -20 -25 0 -20 -71 -84 -92
-85 -10 0 -18 -6 -18 -13 0 -20 22 -37 47 -37 17 0 23 -6 23 -21 0 -20 101
-129 120 -129 23 0 6 30 -50 85 -35 34 -60 68 -60 80 0 11 14 33 30 47 24 21
36 25 53 18 l22 -9 -22 0 c-40 -1 -27 -30 17 -37 22 -4 43 -11 46 -16 4 -6 -9
-6 -33 -2 -105 21 -116 0 -43 -77 l51 -54 22 29 c12 16 43 50 69 75 28 28 49
59 53 79 8 38 2 39 -56 12 -24 -11 -57 -19 -74 -18 -27 1 -27 1 -5 5 49 8 88
24 94 38 3 8 12 15 21 15 8 0 15 8 15 18 0 10 5 23 10 28 8 8 7 26 0 59 -11
48 -7 74 5 36 7 -25 33 -28 42 -5 3 10 -11 31 -41 61 -25 26 -46 52 -46 59 0
7 -7 19 -15 28 -16 16 -31 10 -102 -41 -42 -29 -24 -7 22 27 41 31 56 50 38
50 -5 0 -25 -13 -46 -29z"/>
<path d="M4686 4751 c-38 -39 -39 -41 -28 -83 6 -24 13 -54 16 -68 5 -21 77
-80 99 -80 3 0 11 25 17 56 11 53 6 122 -16 197 -9 29 -47 20 -88 -22z"/>
<path d="M240 4610 c0 -5 -7 -7 -15 -4 -8 4 -15 1 -15 -5 0 -6 5 -11 10 -11 6
0 3 -15 -7 -32 -25 -48 -22 -287 5 -298 15 -7 -43 -80 -61 -76 -7 1 -9 1 -4
-1 4 -3 7 -10 7 -16 0 -5 -3 -8 -6 -5 -5 6 -44 -26 -44 -36 0 -10 45 -14 57
-5 6 6 17 8 23 4 6 -4 17 1 25 11 7 11 16 16 20 12 10 -10 -32 -76 -56 -88
-24 -13 -25 -40 -1 -40 10 0 28 7 41 16 23 16 23 16 16 -7 -9 -28 -37 -68 -47
-69 -5 0 -8 -4 -8 -10 0 -14 47 -12 56 2 5 7 13 -16 20 -54 14 -74 62 -183
108 -243 41 -53 53 -65 65 -65 6 0 4 -14 -6 -35 -9 -19 -21 -31 -26 -28 -6 3
-7 2 -4 -4 4 -6 -5 -33 -18 -62 -14 -28 -25 -62 -25 -75 0 -18 -7 -25 -31 -30
-32 -6 -50 -21 -86 -70 -32 -42 -29 -25 17 105 25 71 40 131 40 160 l0 47 35
-11 c44 -13 54 -4 28 26 -11 12 -26 38 -33 57 -22 62 -64 145 -77 153 -7 4
-13 13 -13 18 0 14 -66 100 -72 93 -3 -2 -11 3 -19 12 -11 14 -10 17 4 25 18
11 24 39 7 39 -5 0 -7 -7 -4 -15 4 -9 0 -15 -9 -15 -19 0 -30 -29 -17 -45 5
-6 6 -16 2 -20 -4 -5 -2 -5 4 -2 23 13 68 -201 58 -273 -4 -25 -5 -45 -3 -46
2 0 -2 -8 -10 -17 -11 -15 -11 -17 2 -17 8 0 20 7 27 15 7 8 19 15 28 15 21 0
12 -68 -23 -158 -20 -50 -32 -68 -38 -60 -6 9 -7 7 -3 -6 4 -10 -1 -44 -10
-76 -11 -40 -14 -78 -10 -131 8 -107 10 -118 20 -111 5 3 6 -3 2 -14 -13 -33
-7 -168 8 -205 8 -20 18 -60 22 -90 4 -30 9 -48 12 -40 4 13 41 -52 42 -74 0
-5 11 -23 25 -39 20 -23 22 -32 13 -39 -9 -6 -8 -7 4 -4 19 7 43 -17 33 -33
-3 -5 -1 -10 5 -10 6 0 26 -14 46 -32 29 -27 34 -36 29 -62 -5 -23 -4 -27 4
-16 9 12 11 9 11 -15 1 -16 8 -48 16 -70 9 -22 17 -52 18 -68 2 -15 6 -30 11
-35 4 -4 4 3 1 16 -11 34 1 26 30 -20 52 -84 105 -118 185 -118 57 0 109 27
128 65 5 11 10 15 10 9 1 -11 36 -7 104 11 16 4 27 3 27 -3 0 -5 11 -25 24
-45 21 -30 22 -38 10 -48 -17 -14 -9 -30 12 -22 16 6 63 -41 64 -64 0 -6 6
-14 13 -17 13 -5 -11 -6 -109 -6 -49 0 -66 -4 -87 -23 -15 -12 -27 -30 -27
-39 0 -9 -6 -19 -12 -21 -10 -4 -10 -8 -2 -14 6 -4 14 -18 18 -30 6 -18 15
-23 42 -23 19 0 34 5 34 10 0 12 30 13 49 1 11 -7 9 -14 -11 -33 -14 -12 -27
-27 -28 -33 -2 -5 -7 -20 -13 -33 -18 -39 0 -35 40 9 21 23 55 61 75 83 21 23
38 44 38 47 0 3 -9 14 -20 24 -27 25 -25 43 6 51 19 5 29 2 36 -10 13 -23 21
-21 69 23 l43 39 -29 42 c-119 169 -256 429 -324 615 -40 113 -61 180 -42 140
6 -11 26 -63 45 -115 76 -207 166 -384 297 -583 l58 -88 78 73 c42 40 87 82
98 93 64 60 189 171 201 178 21 12 19 18 -38 109 -113 183 -214 421 -262 621
-47 196 -58 277 -63 482 -5 181 -1 255 23 451 l6 51 -123 6 c-132 7 -232 29
-327 72 -67 31 -70 31 -75 3 -3 -15 -4 -13 -2 5 1 24 -5 33 -49 58 -60 34 -76
36 -76 10 0 -10 -7 -21 -15 -24 -19 -8 -26 5 -14 23 13 22 11 56 -5 69 -18 15
-40 -6 -56 -54 -10 -31 -16 -35 -46 -35 -39 0 -39 0 -17 47 13 29 14 36 3 43
-9 6 2 10 33 12 l47 3 -35 39 c-19 22 -35 43 -35 47 0 4 -19 9 -42 11 -43 3
-43 3 -46 45 -5 66 -51 70 -71 5 -6 -20 -20 -48 -31 -62 l-20 -25 1 50 c0 28
8 75 18 105 18 54 18 56 -1 83 -19 27 -38 36 -38 17z m271 -500 c90 0 84 8 73
-99 -8 -74 -20 -63 -30 26 l-6 63 -33 0 c-31 0 -34 -3 -40 -39 -11 -69 31
-238 72 -283 13 -15 13 -19 -10 -44 l-25 -27 -16 32 c-9 17 -14 37 -10 44 4 7
4 9 -1 5 -21 -20 -75 143 -75 227 0 59 12 138 18 113 3 -15 15 -18 83 -18z
m306 -27 c3 -10 19 -53 36 -95 l29 -76 50 -7 c27 -4 52 -4 55 -1 3 3 -6 33
-21 66 -27 64 -32 95 -17 104 5 4 12 -8 16 -26 4 -18 19 -61 34 -95 l26 -62
88 -7 c48 -3 87 -11 87 -17 0 -5 -15 -7 -37 -4 -21 3 -118 14 -215 23 -98 10
-178 21 -178 26 0 4 18 8 40 8 22 0 40 1 40 3 0 2 -13 40 -30 85 -16 46 -30
85 -30 87 0 13 21 3 27 -12z m223 -320 c63 -3 108 -8 100 -11 -8 -3 -20 -10
-27 -16 -6 -6 -37 -31 -67 -56 -30 -25 -55 -50 -55 -56 -1 -12 92 -94 129
-114 l25 -14 -33 -7 c-18 -4 -103 -10 -189 -14 l-157 -7 77 72 c42 40 77 77
77 82 0 6 -35 44 -77 85 l-78 75 80 -6 c44 -3 132 -9 195 -13z m89 -454 c-35
-32 -61 -60 -59 -62 3 -3 39 -22 80 -42 97 -49 76 -57 -24 -10 l-76 36 -39
-43 c-22 -24 -48 -54 -58 -67 -23 -28 -29 -26 -115 41 l-57 44 27 35 c14 19
29 36 32 39 3 3 13 17 23 33 10 15 24 27 31 27 7 0 45 -18 83 -40 l70 -41 64
60 c34 33 67 57 72 54 5 -3 -20 -32 -54 -64z m-666 -50 c16 -12 30 -19 31 -17
2 1 9 12 15 23 l13 20 -7 -20 c-4 -11 -25 -69 -46 -130 -21 -60 -39 -127 -39
-148 0 -38 0 -39 -32 -32 -18 4 -37 10 -42 12 -11 7 2 122 26 222 17 69 18 85
7 93 -10 7 -4 8 16 3 17 -3 43 -15 58 -26z m137 -171 c0 -11 4 -27 9 -36 5 -9
11 -35 12 -57 2 -22 9 -43 14 -47 6 -4 -35 -7 -90 -7 -55 1 -87 4 -71 8 26 6
30 13 52 96 13 50 27 103 30 118 l7 28 18 -42 c11 -22 19 -50 19 -61z m644
-50 c-5 -7 -21 -32 -36 -54 -15 -23 -28 -47 -28 -54 0 -6 27 -24 60 -39 34
-15 58 -30 54 -33 -3 -4 -31 4 -61 18 -31 13 -61 24 -67 24 -7 0 -24 -25 -39
-56 -30 -61 -37 -62 -101 -23 -17 11 -36 19 -42 19 -6 0 -22 -27 -37 -60 -14
-33 -30 -60 -36 -60 -7 0 -5 14 5 38 16 36 34 91 34 102 0 3 -25 21 -55 39
-52 32 -69 51 -43 51 6 0 25 -11 42 -23 71 -54 73 -54 103 8 15 30 31 55 35
55 5 0 31 -11 58 -25 27 -14 54 -25 59 -25 5 0 25 25 43 55 18 30 39 55 46 55
8 0 10 -5 6 -12z m-604 -202 c-6 -19 -27 -49 -47 -66 -29 -26 -42 -31 -76 -28
l-42 3 1 57 c1 45 -2 58 -15 60 -9 2 28 2 82 0 74 -3 97 -1 97 8 0 8 3 11 6 7
3 -3 1 -21 -6 -41z m61 -186 c-6 -20 -11 -50 -12 -66 0 -25 -2 -26 -9 -9 -5
11 -9 14 -9 8 -1 -7 -10 -13 -21 -13 -27 0 -86 -39 -101 -67 -16 -29 -19 -29
-62 8 -33 28 -37 37 -37 80 l0 48 53 -6 c70 -7 126 10 162 50 37 40 54 25 36
-33z m726 -114 c-16 -12 -59 -38 -98 -56 -73 -36 -74 -37 -84 -116 l-6 -51 50
-21 c27 -12 57 -22 65 -22 9 0 55 25 102 56 48 30 89 53 92 50 3 -4 3 -7 1 -9
-8 -7 -126 -86 -164 -111 -22 -14 -67 -44 -100 -66 -33 -22 -63 -40 -67 -40
-5 0 -8 34 -8 75 l0 74 -45 20 c-103 45 -107 38 97 145 101 52 185 95 188 95
3 0 -8 -10 -23 -23z"/>
<path d="M830 3752 c0 -13 111 -112 125 -111 14 0 118 82 123 97 3 9 -23 12
-106 12 -61 0 -117 3 -126 6 -9 3 -16 2 -16 -4z"/>
<path d="M898 3564 c-87 -77 -87 -76 54 -68 67 4 125 9 128 11 5 5 -21 26 -87
74 l-42 29 -53 -46z"/>
<path d="M860 3275 c-19 -25 -35 -53 -35 -62 0 -9 22 -32 48 -51 l48 -35 54
53 c44 43 52 57 43 68 -9 10 -83 54 -118 69 -3 1 -21 -18 -40 -42z"/>
<path d="M6660 4601 c0 -5 -13 -22 -30 -38 -16 -15 -30 -32 -30 -38 0 -5 4 -3
10 5 7 12 10 11 15 -5 4 -11 11 -29 15 -40 20 -48 40 -121 40 -146 0 -14 7
-32 15 -39 8 -7 15 -17 15 -23 0 -5 -8 -3 -18 6 -10 10 -23 17 -28 17 -6 0
-16 26 -22 58 -14 62 -41 124 -57 129 -34 10 -48 -42 -28 -103 10 -29 9 -30
-11 -27 -18 4 -22 10 -18 34 2 16 0 29 -4 29 -5 0 -36 -27 -69 -60 l-59 -60
44 -1 c25 -1 34 -4 20 -6 -23 -4 -28 -16 -67 -151 -24 -81 -40 -128 -37 -105
4 30 1 49 -11 67 -11 17 -15 35 -11 53 5 21 4 24 -4 13 -7 -11 -10 -6 -10 23
0 20 -5 37 -10 37 -6 0 -34 -13 -63 -30 l-53 -30 17 -102 c38 -225 47 -451 29
-653 -13 -136 -31 -267 -37 -262 -2 3 3 58 11 123 23 183 29 365 17 524 -11
139 -38 351 -46 359 -6 5 -115 -42 -115 -50 0 -4 18 -19 40 -34 l40 -28 -37
-51 c-67 -94 -66 -94 -115 -68 -24 12 -59 31 -78 43 l-35 22 -65 -61 c-36 -34
-67 -57 -69 -51 -2 6 23 36 55 66 l59 55 -55 29 c-34 17 -71 28 -97 29 -51 0
-50 3 -28 -146 19 -126 19 -434 1 -574 -41 -306 -153 -627 -304 -873 -35 -57
-35 -57 -16 -79 10 -13 28 -29 39 -37 11 -9 43 -36 70 -61 28 -26 88 -73 135
-105 47 -32 87 -60 90 -62 2 -2 -2 -8 -10 -13 -12 -8 -10 -14 15 -35 17 -13
33 -24 36 -25 9 0 96 138 154 245 117 213 205 439 259 665 47 195 46 192 40
135 -14 -122 -99 -401 -182 -592 -60 -139 -163 -326 -234 -427 l-27 -38 146
-153 c144 -150 147 -152 160 -129 17 35 37 139 30 166 -5 20 -3 20 18 -7 32
-38 32 -76 0 -154 -27 -66 -26 -101 4 -101 13 0 30 22 55 73 28 58 36 85 36
130 0 94 -44 154 -120 164 -28 4 -37 9 -33 20 3 9 -11 30 -36 54 -39 38 -51
59 -33 59 5 0 19 23 32 51 21 43 27 49 47 44 16 -4 23 -1 23 10 0 8 -4 15 -10
15 -16 0 -12 27 11 72 l21 41 19 -32 c10 -17 23 -31 28 -31 5 0 12 -16 15 -35
9 -44 46 -70 98 -69 49 2 68 18 68 59 0 23 -7 38 -25 51 -19 14 -25 27 -24 54
1 19 3 27 6 18 11 -44 182 -24 251 28 46 36 92 81 92 92 0 5 9 17 20 27 11 10
25 33 32 51 8 24 15 30 21 21 6 -8 7 -6 3 7 -4 10 -2 24 3 30 5 6 9 14 9 19 0
4 6 39 13 78 9 54 10 84 1 131 -13 72 -19 79 -38 54 -21 -29 -17 -12 8 31 12
21 43 59 69 85 l48 46 -31 11 c-38 13 -41 14 -33 1 3 -5 0 -10 -8 -10 -8 0
-22 -9 -32 -20 -10 -11 -22 -20 -27 -20 -13 0 30 81 60 112 32 35 24 43 -22
24 -40 -17 -40 -17 -25 18 7 14 16 23 22 19 5 -3 7 0 5 8 -3 8 1 22 10 32 14
16 13 17 -9 17 -14 0 -30 -5 -37 -12 -9 -9 -12 -4 -12 26 0 69 -89 256 -152
319 l-28 28 40 84 c22 46 41 94 43 106 3 16 13 26 34 31 17 4 47 26 67 48 43
48 45 36 10 -51 -30 -71 -55 -169 -56 -211 0 -23 -3 -26 -19 -18 -22 12 -59
13 -59 2 0 -5 9 -19 19 -31 10 -12 24 -36 31 -54 23 -60 66 -144 81 -157 3 -3
15 -21 27 -40 20 -34 75 -90 88 -90 3 0 3 8 0 17 -4 9 -1 20 6 25 10 7 10 9
-2 6 -41 -12 -83 261 -49 324 16 30 -3 43 -26 18 -22 -25 -41 -26 -42 -2 -1
35 19 112 28 107 5 -4 6 1 3 9 -3 8 2 30 11 48 54 108 73 266 41 343 -9 21
-11 37 -5 40 14 9 10 81 -9 178 -10 48 -15 90 -10 93 4 3 8 10 8 16 0 7 -5 6
-14 -1 -11 -10 -16 -8 -21 8 -3 12 -3 26 1 32 4 8 3 9 -4 5 -7 -4 -14 4 -18
21 -7 27 -20 43 -36 43 -5 0 -8 -4 -8 -9z m-102 -326 c19 -5 22 -13 22 -53 0
-42 -27 -183 -45 -239 -5 -16 -2 -23 12 -26 10 -3 1 -3 -19 -2 -20 2 -47 12
-59 24 -30 28 -33 27 -48 -16 -13 -34 -12 -38 10 -55 12 -11 36 -22 52 -25 16
-3 25 -9 20 -12 -5 -3 -24 -39 -43 -80 -23 -47 -36 -67 -39 -55 -1 11 -14 33
-27 51 -25 33 -30 62 -15 91 5 9 17 40 26 67 10 28 23 64 30 80 40 93 76 229
68 252 -4 11 -1 14 13 10 10 -3 29 -8 42 -12z m-473 -566 c-41 -39 -75 -75
-75 -79 0 -5 35 -43 78 -85 l77 -78 -75 6 c-41 4 -128 9 -192 13 l-117 6 48
37 c77 58 113 91 109 99 -6 14 -103 99 -126 111 -13 7 -21 15 -18 18 6 7 180
19 289 22 l77 1 -75 -71z m399 -314 c30 -71 41 -163 30 -242 -4 -32 -9 -50
-11 -40 -4 14 -17 17 -90 17 -69 0 -84 3 -80 14 3 8 9 46 13 86 8 85 20 76 30
-22 l7 -68 33 0 c31 0 33 2 39 43 12 77 -28 228 -72 279 -14 16 -13 20 11 48
14 18 26 37 27 43 0 7 8 -13 19 -43 10 -30 30 -82 44 -115z m-554 -25 c102
-11 195 -20 208 -20 12 0 22 -4 22 -10 0 -5 -18 -10 -40 -10 -22 0 -40 -1 -40
-3 0 -2 13 -40 30 -85 18 -49 26 -84 20 -87 -6 -4 -13 2 -16 12 -3 10 -20 53
-36 95 l-31 77 -49 6 c-27 4 -52 5 -55 2 -3 -3 9 -40 26 -81 36 -86 36 -86 17
-86 -8 0 -17 10 -21 23 -3 12 -18 52 -32 89 l-25 66 -89 7 c-49 4 -89 11 -89
16 0 11 -16 12 200 -11z m-50 -285 c58 -13 133 -30 168 -37 l62 -13 -77 -82
-78 -82 -115 35 c-180 56 -197 62 -175 63 11 1 78 -15 149 -35 l128 -36 54 53
c30 29 54 58 54 64 0 6 -73 28 -162 49 -90 21 -172 43 -183 47 -32 15 56 2
175 -26z m790 -240 c0 -34 -19 -117 -39 -168 -15 -38 -53 -87 -62 -81 -5 3 -6
-1 -4 -9 4 -8 -19 -32 -57 -62 -57 -45 -69 -50 -126 -53 -49 -4 -66 -9 -77
-25 -24 -35 -17 -10 9 31 26 40 50 64 173 171 89 77 108 100 144 178 13 29 27
53 32 53 4 0 7 -16 7 -35z m-836 -71 c98 -35 181 -65 184 -68 14 -15 -9 -15
-51 1 -45 17 -47 17 -69 -3 -13 -12 -44 -35 -69 -52 -56 -38 -61 -34 -78 59
-7 36 -16 70 -19 76 -4 5 -31 18 -59 27 -29 10 -53 22 -53 28 0 6 7 7 18 3 9
-5 97 -36 196 -71z m-136 -264 c95 -47 172 -90 172 -96 0 -7 -19 -27 -42 -47
-24 -19 -54 -44 -67 -56 -24 -21 -51 -28 -51 -13 0 4 11 14 24 22 39 25 107
90 102 99 -3 4 -23 16 -46 26 l-40 18 -28 -25 c-49 -46 -120 -89 -127 -77 -4
6 -5 12 -4 13 2 2 29 19 61 40 90 59 91 55 -32 117 -60 30 -110 58 -110 62 0
11 -14 17 188 -83z"/>
<path d="M5920 3751 l-85 -6 40 -29 c22 -17 54 -40 71 -53 l32 -22 53 49 c30
27 57 50 62 50 4 0 7 5 7 10 0 10 -33 10 -180 1z"/>
<path d="M5908 3564 c-32 -25 -58 -49 -58 -55 0 -5 55 -9 128 -9 l127 1 -60
54 c-33 30 -64 55 -70 55 -5 -1 -36 -21 -67 -46z"/>
<path d="M4546 4573 c-18 -5 -55 -40 -56 -54 0 -3 16 -24 36 -47 33 -39 34
-43 19 -58 -15 -15 -17 -15 -36 2 -14 13 -18 25 -14 44 4 17 1 31 -9 39 -18
15 -28 1 -23 -31 2 -13 2 -17 0 -10 -3 6 -8 12 -13 12 -13 0 -32 -29 -25 -40
3 -5 1 -10 -4 -10 -24 0 -61 -44 -55 -64 4 -15 3 -17 -4 -7 -7 10 -16 5 -37
-23 -26 -34 -27 -40 -17 -74 6 -21 21 -47 32 -59 11 -12 20 -27 20 -33 0 -5 4
-10 9 -10 5 0 8 -8 7 -17 -2 -27 32 -22 169 25 66 23 132 44 148 47 33 7 34
25 4 61 -23 26 -23 26 -57 9 -55 -28 -163 -56 -174 -45 -17 17 -39 11 -68 -17
-15 -14 -29 -25 -30 -22 -2 2 -14 16 -27 32 l-25 27 22 16 c12 8 22 24 22 35
0 22 17 26 22 5 3 -13 6 -13 22 0 17 12 18 18 8 51 -14 45 -10 50 20 29 12 -9
33 -16 45 -16 33 0 29 -12 -17 -49 -46 -37 -48 -41 -19 -59 18 -12 24 -11 43
7 12 11 42 29 68 41 25 11 48 26 51 33 3 9 9 9 27 -1 12 -7 24 -11 27 -8 3 3
21 -14 40 -37 20 -23 38 -43 42 -44 10 -4 71 36 71 46 0 5 -16 23 -36 41 -29
25 -42 30 -63 25 l-26 -7 24 26 c16 17 31 24 43 20 31 -10 78 6 78 26 0 22
-65 82 -117 108 -31 16 -138 46 -146 41 -1 -1 -11 -4 -21 -6z"/>
<path d="M2340 4500 c-66 -10 -94 -24 -147 -72 -41 -39 -123 -150 -123 -168 0
-10 39 -20 54 -14 7 3 24 29 39 58 28 55 71 92 140 121 21 9 42 26 47 38 8 16
9 11 4 -22 -4 -31 -2 -46 7 -52 24 -15 49 -10 49 9 0 11 9 27 20 37 11 10 20
13 20 8 0 -11 60 -27 68 -18 8 8 -50 65 -65 65 -7 0 -13 5 -13 10 0 11 -31 11
-100 0z"/>
<path d="M2293 4396 c4 -9 0 -12 -13 -9 -36 9 -119 -76 -112 -114 2 -7 -2 -13
-8 -13 -23 0 -7 -22 38 -50 79 -50 231 -90 219 -57 -2 6 3 21 13 32 21 25 46
103 36 113 -4 4 -22 12 -39 19 -31 12 -31 12 12 6 48 -7 52 10 4 22 -15 3 -53
20 -86 36 -68 33 -71 34 -64 15z"/>
<path d="M1856 4205 c-14 -14 -26 -21 -26 -15 0 17 -29 11 -40 -9 -13 -25 2
-36 28 -22 13 7 23 6 31 -2 10 -9 15 -8 27 7 14 19 14 19 14 -2 0 -18 -6 -22
-30 -22 -40 0 -39 -23 1 -61 34 -31 79 -38 98 -15 7 8 16 28 21 45 8 29 5 34
-36 74 -25 23 -49 43 -54 45 -4 2 -20 -9 -34 -23z"/>
<path d="M1660 4142 c-19 -9 -44 -34 -56 -55 -21 -38 -21 -38 -26 -13 -4 18
-1 26 8 26 8 0 14 4 14 9 0 9 -69 4 -79 -5 -9 -8 25 -57 42 -62 12 -3 16 -10
12 -21 -4 -9 -9 -40 -12 -68 -5 -50 -4 -53 16 -53 32 0 61 18 61 38 0 70 51
142 100 142 31 0 39 -17 30 -69 l-5 -33 -28 32 c-34 38 -58 36 -71 -8 -7 -26
-5 -36 9 -51 9 -11 14 -24 11 -30 -4 -5 -41 -17 -84 -27 -119 -26 -162 -53
-162 -103 0 -48 59 -81 93 -52 26 21 22 52 -5 49 -13 -2 -24 1 -26 6 -3 10 69
35 162 57 28 6 54 17 58 23 5 8 12 6 23 -5 15 -14 13 -20 -16 -68 -31 -49 -34
-85 -4 -45 13 17 13 16 3 -13 -16 -43 -40 -29 -64 37 -18 51 -39 63 -74 40
-12 -8 -12 -16 4 -62 10 -29 30 -68 43 -86 24 -31 24 -35 9 -65 -29 -63 -51
-387 -26 -387 6 0 10 24 10 54 0 73 11 147 21 140 4 -2 6 -11 2 -19 -3 -10 1
-15 14 -15 15 0 19 8 20 42 1 23 8 45 15 49 18 11 21 4 9 -19 -21 -40 -13 -91
19 -123 32 -32 50 -33 98 -3 17 11 22 24 22 54 0 22 -4 40 -10 40 -5 0 -10 7
-10 15 0 10 -10 15 -30 15 -33 0 -53 -27 -48 -63 4 -26 46 -37 59 -15 6 9 9 9
9 1 0 -22 -37 -35 -60 -21 -47 30 -9 126 45 112 33 -8 65 -50 65 -84 0 -39
-73 -99 -106 -86 -8 3 -14 1 -14 -5 0 -13 -44 40 -53 64 -5 12 -15 17 -29 15
-21 -3 -23 -9 -26 -75 l-3 -71 37 -12 c40 -14 58 -2 50 32 -6 24 11 32 22 12
7 -13 18 -16 46 -11 22 3 34 2 31 -4 -4 -5 -3 -14 0 -19 4 -7 24 -1 53 15 41
23 44 24 26 4 -10 -11 -31 -27 -46 -35 -60 -31 -19 -64 77 -64 l54 0 -5 103
c-6 108 -18 150 -43 145 -8 -2 -19 -19 -24 -38 -10 -40 -43 -90 -59 -90 -7 0
-2 10 9 23 37 40 63 120 43 132 -6 3 -10 16 -9 28 l0 22 11 -22 c17 -34 34
-34 76 0 89 72 94 121 22 231 -27 42 -54 76 -60 76 -6 0 -8 11 -4 28 11 43
-17 14 -51 -53 -26 -53 -30 -89 -4 -48 11 18 14 15 40 -35 16 -30 29 -61 29
-70 0 -19 -61 -101 -76 -102 -6 0 -17 7 -24 15 -6 8 -15 14 -18 13 -4 -1 -14
1 -22 5 -8 3 -22 8 -30 11 -8 3 6 3 33 0 42 -5 47 -3 47 14 0 15 -10 23 -37
30 -34 8 -31 9 32 8 65 -1 70 0 73 22 2 12 -1 22 -7 22 -6 0 -11 6 -11 14 0 9
-17 16 -47 21 -48 7 -133 39 -133 50 0 3 17 -2 38 -11 67 -29 70 -29 87 12 9
22 28 56 42 76 24 36 25 41 14 90 -7 29 -12 61 -12 71 0 21 -1 21 -46 2 -27
-11 -39 -12 -49 -4 -18 15 -18 29 0 29 17 0 26 31 26 89 0 37 -5 49 -36 77
-41 40 -88 45 -144 16z"/>
<path d="M4860 4145 c-7 -9 -9 -26 -5 -46 5 -22 4 -29 -4 -25 -6 4 -11 16 -11
28 0 18 -4 19 -37 13 -64 -12 -123 -35 -179 -71 -50 -32 -68 -54 -44 -54 6 0
10 -7 10 -17 0 -24 49 -123 61 -123 6 0 7 -4 4 -10 -3 -5 3 -10 14 -10 11 0
23 4 26 10 3 5 35 19 71 30 86 26 96 33 59 41 -30 7 -30 7 -3 8 35 1 40 11 40
84 0 58 1 60 13 36 12 -22 12 -35 0 -85 -20 -84 -42 -134 -50 -112 -10 25 -35
30 -62 12 -23 -14 -23 -17 -9 -33 9 -10 16 -25 16 -34 0 -9 5 -19 10 -22 6 -3
10 -12 9 -18 0 -9 -2 -9 -6 1 -7 19 -34 15 -94 -14 -30 -15 -71 -29 -92 -32
-46 -6 -49 -10 -38 -53 5 -19 12 -46 15 -61 4 -16 11 -28 17 -28 21 0 37 -27
32 -53 -3 -15 -9 -27 -14 -27 -5 0 -9 -9 -9 -21 0 -35 43 -21 55 19 5 17 12
32 16 32 4 0 14 -19 21 -42 9 -26 23 -47 36 -53 12 -5 22 -13 22 -17 0 -10 -1
-10 -50 7 -68 24 -90 20 -90 -14 0 -26 3 -29 46 -35 26 -3 52 -11 59 -16 7 -6
27 -12 46 -14 19 -2 37 -4 41 -5 3 0 4 -10 1 -21 -3 -11 -1 -20 4 -20 5 0 7
-26 5 -59 l-4 -60 38 -6 c22 -3 47 -10 56 -16 25 -13 26 -13 45 29 9 20 19 40
21 45 6 12 -33 8 -46 -5 -7 -7 -12 -21 -13 -33 -1 -11 -7 4 -14 34 -8 30 -19
58 -27 62 -8 6 0 9 25 9 26 0 37 -4 37 -15 0 -8 14 -22 31 -31 40 -20 49 -9
49 63 0 60 -8 84 -56 171 -29 52 -38 61 -50 51 -20 -16 -18 -42 7 -89 12 -23
24 -61 27 -86 l5 -44 -49 1 -49 1 38 8 c49 9 51 12 40 57 -7 31 -14 39 -36 41
-26 3 -27 5 -21 45 3 23 15 54 25 69 10 15 19 33 19 40 -1 23 -27 49 -43 42
-22 -8 -57 -96 -57 -143 0 -36 -3 -41 -23 -41 -18 0 -22 5 -22 25 1 14 11 34
23 46 25 23 29 49 7 49 -8 0 -15 4 -15 9 0 5 8 7 19 4 30 -8 33 24 4 47 -40
31 -71 24 -52 -11 5 -11 6 -19 1 -19 -17 0 -32 25 -32 52 0 49 -35 30 -45 -25
-7 -36 -25 -52 -25 -21 0 9 -13 21 -30 27 -32 12 -40 27 -14 27 9 0 44 13 77
29 34 15 72 31 85 35 12 4 22 14 22 22 0 8 6 14 13 14 14 0 57 33 57 43 0 3
10 17 23 31 13 14 29 43 35 64 26 88 6 292 -29 292 -9 0 -22 -7 -29 -15z"/>
<path d="M5195 4119 c-10 -31 20 -56 81 -69 38 -8 59 -8 74 0 24 13 28 -4 4
-18 -15 -8 -14 -15 6 -69 23 -64 24 -130 2 -125 -9 2 -12 -6 -10 -20 2 -15 9
-22 21 -22 21 2 22 -19 1 -37 -49 -41 -71 -149 -34 -169 29 -16 43 -3 36 33
-5 25 3 47 44 118 44 76 50 94 50 143 0 67 -39 165 -69 173 -18 5 -19 7 -5 20
8 9 12 19 7 23 -15 14 -61 20 -65 9 -5 -14 -38 0 -38 17 0 10 -14 14 -49 14
-41 0 -51 -3 -56 -21z"/>
<path d="M1983 4083 c-9 -21 -19 -42 -21 -46 -2 -5 6 -7 19 -5 13 1 29 14 35
27 11 22 12 21 19 -18 4 -25 15 -47 28 -56 20 -14 20 -15 -21 -15 -30 0 -42 4
-42 15 0 8 -14 22 -31 31 -39 20 -49 9 -49 -56 0 -60 12 -99 55 -176 30 -54
39 -63 51 -53 20 17 17 55 -7 88 -11 16 -22 50 -26 82 l-5 54 48 -4 49 -5 -38
-6 c-49 -9 -52 -13 -41 -58 7 -30 14 -38 37 -40 27 -3 28 -5 22 -45 -4 -23
-15 -54 -26 -69 -10 -15 -19 -33 -19 -40 1 -18 25 -48 38 -48 19 0 53 79 59
136 4 39 10 54 21 54 9 0 23 7 33 16 13 11 22 13 36 6 10 -6 39 -13 66 -17
l47 -7 0 31 c0 26 -4 31 -25 31 -13 0 -46 7 -72 16 -26 9 -57 17 -68 18 -13 1
-21 9 -23 24 -2 12 -6 22 -10 22 -4 0 -5 27 -4 60 l4 59 -51 7 c-28 4 -51 10
-51 15 0 22 -21 5 -37 -28z"/>
<path d="M4946 4013 c6 -106 18 -153 41 -153 14 0 17 6 27 50 3 14 17 38 31
54 32 37 33 25 1 -17 -25 -34 -41 -103 -25 -112 5 -4 9 -16 8 -28 l0 -22 -11
23 c-17 34 -46 27 -99 -27 -43 -42 -49 -53 -49 -89 0 -27 9 -54 25 -79 62 -95
78 -114 91 -109 11 4 12 1 4 -14 -5 -10 -10 -25 -10 -32 1 -19 38 30 62 80 20
45 19 69 -3 34 -11 -18 -15 -15 -41 40 -15 33 -28 64 -28 69 0 16 64 98 76 99
6 0 17 -7 24 -15 7 -9 19 -14 27 -11 7 3 13 1 13 -4 0 -5 8 -11 18 -13 9 -2
-2 -2 -25 0 -38 4 -43 2 -43 -16 0 -11 8 -22 18 -24 9 -3 1 -5 -18 -6 -59 -2
-78 -11 -73 -32 3 -10 9 -19 14 -19 5 0 9 -6 9 -14 0 -9 17 -16 48 -21 105
-15 183 -65 208 -134 12 -35 24 -51 38 -54 12 -2 -3 -9 -36 -17 -40 -9 -58
-18 -58 -28 0 -12 -5 -10 -21 7 l-21 22 26 33 c14 18 28 46 31 62 l7 29 -22
-25 c-19 -22 -20 -22 -11 -3 17 33 5 49 -56 72 -55 21 -73 20 -73 -2 0 -6 -16
-38 -36 -70 l-37 -59 14 -57 c7 -31 12 -62 10 -68 -3 -16 2 -16 46 2 27 11 39
12 49 4 16 -13 19 -33 4 -24 -16 10 -32 -46 -27 -97 l4 -47 -33 25 c-46 36
-84 30 -106 -16 -9 -19 -17 -38 -18 -43 0 -14 105 -107 123 -107 20 0 22 11 5
28 -9 9 -8 12 5 12 10 0 17 8 17 19 0 27 -15 34 -34 15 -15 -14 -16 -14 -16 5
0 17 6 21 30 21 21 0 30 5 30 17 0 13 5 12 26 -8 21 -20 36 -24 86 -24 58 0
61 2 93 39 36 43 53 89 62 166 5 47 4 50 -16 50 -32 0 -61 -18 -61 -38 0 -68
-49 -142 -94 -142 -31 0 -44 24 -37 68 l6 33 34 -35 c40 -41 56 -36 67 21 5
27 3 38 -10 45 -35 20 -8 37 99 61 80 19 123 42 131 71 9 37 2 57 -28 79 -26
19 -28 19 -53 3 -32 -21 -30 -51 4 -51 13 0 26 -7 29 -15 3 -8 1 -12 -3 -8 -4
3 -25 0 -47 -8 -52 -18 -64 -18 -48 1 9 11 7 26 -10 72 -12 32 -31 68 -42 80
-18 19 -20 27 -10 45 24 49 33 109 39 251 4 103 3 147 -5 147 -6 0 -13 -25
-15 -57 l-3 -58 -2 57 c-2 55 -3 57 -38 68 -30 10 -38 10 -45 -1 -13 -20 -11
-39 4 -39 8 0 8 -3 -2 -9 -9 -6 -19 -4 -29 6 -11 10 -26 13 -49 10 -20 -4 -31
-2 -28 4 4 5 3 14 0 19 -4 7 -23 2 -50 -13 -30 -17 -42 -20 -38 -10 3 7 23 23
44 34 44 22 52 53 17 63 -13 3 -49 6 -80 6 l-57 0 5 -97z"/>
<path d="M2146 4083 c-3 -8 -6 -30 -6 -49 0 -26 4 -34 18 -34 11 0 52 -18 93
-39 52 -28 75 -46 79 -63 5 -20 13 -23 58 -26 46 -3 52 -1 52 17 0 11 5 23 10
26 26 16 0 36 -115 90 -69 32 -125 62 -125 66 0 4 -13 12 -29 17 -24 8 -31 7
-35 -5z"/>
<path d="M5982 4090 c-26 -11 -71 -59 -72 -77 0 -7 27 -28 60 -47 l61 -36 29
33 c16 17 35 43 42 55 11 22 9 26 -22 53 -36 30 -59 34 -98 19z"/>
<path d="M1308 4063 c-16 -2 -28 -5 -28 -6 0 -1 -7 -40 -15 -87 -9 -47 -18
-173 -21 -280 -13 -389 58 -712 232 -1063 57 -113 139 -247 153 -247 4 0 25
15 46 33 l37 32 -57 95 c-32 52 -70 122 -85 155 -15 33 -39 86 -54 117 -106
229 -177 626 -161 898 7 112 28 292 41 338 6 20 3 22 -27 21 -19 -1 -46 -4
-61 -6z"/>
<path d="M5534 4053 c11 -36 35 -251 41 -363 13 -246 -46 -593 -143 -840 -27
-67 -104 -223 -141 -283 -23 -37 -41 -70 -41 -73 0 -13 75 -74 85 -70 30 11
183 323 238 486 90 262 123 491 113 780 -3 107 -12 233 -19 280 -12 82 -13 85
-42 91 -17 4 -45 7 -63 8 -27 1 -32 -2 -28 -16z"/>
<path d="M2169 3828 c-1 -7 -1 -20 0 -30 1 -9 -7 -22 -18 -30 -11 -8 -26 -33
-34 -56 -14 -41 -14 -43 10 -62 24 -19 63 -27 63 -14 0 3 -5 14 -10 25 -6 10
-7 19 -2 19 12 0 33 -25 31 -36 -5 -28 3 -44 21 -44 14 0 20 7 20 23 0 12 3
32 6 45 6 22 6 22 37 -8 17 -16 41 -30 55 -30 20 0 23 4 20 27 -2 18 -10 29
-22 31 -11 3 -26 11 -35 19 -13 14 -13 20 7 54 27 47 27 49 -1 49 -17 0 -29
-10 -42 -34 -20 -36 -35 -39 -35 -5 0 29 -30 69 -51 69 -11 0 -20 -6 -20 -12z"/>
<path d="M1554 3655 c-4 -8 -4 -25 0 -37 4 -16 -9 -47 -42 -102 -39 -67 -47
-90 -50 -141 -3 -52 0 -71 23 -120 16 -32 36 -60 46 -62 18 -5 18 -6 -1 -30
-33 -43 -22 -143 16 -143 11 0 12 -4 4 -19 -13 -26 -13 -44 1 -35 8 4 8 0 0
-15 -13 -24 -4 -71 14 -71 14 0 75 121 75 148 0 10 4 22 9 28 5 5 11 20 13 34
2 19 9 24 32 25 40 0 56 27 32 54 -20 22 -106 44 -140 35 -20 -5 -27 1 -45 38
-30 62 -25 73 5 14 36 -68 52 -48 25 32 -25 74 -27 122 -6 122 9 0 15 9 15 25
0 18 -5 25 -18 25 -25 0 -41 -35 -45 -100 l-3 -55 -2 57 c-2 53 2 63 48 134
56 86 67 144 31 164 -26 13 -31 13 -37 -5z"/>
<path d="M2300 3613 c-8 -2 -37 -15 -65 -27 -27 -13 -60 -26 -72 -30 -25 -8
-30 -35 -11 -54 8 -8 8 -12 1 -12 -6 0 -13 7 -17 15 -7 19 -21 19 -38 1 -39
-41 -74 -91 -85 -119 -25 -70 -8 -282 24 -294 25 -10 45 18 39 56 -5 36 -5 36
7 8 10 -26 15 -28 46 -22 103 19 186 65 178 96 -3 11 -1 22 4 25 20 12 -1 144
-23 144 -5 0 -20 -7 -34 -16 -13 -9 -27 -14 -31 -11 -3 4 6 12 21 18 14 7 26
19 26 27 0 10 -11 7 -44 -12 -25 -14 -52 -26 -62 -26 -25 0 -84 -23 -84 -32 0
-4 15 -8 33 -9 33 -1 31 -3 -15 -13 -27 -6 -28 -9 -28 -74 -1 -63 -2 -66 -15
-41 -15 27 -13 40 23 157 15 50 32 69 32 37 0 -21 66 -21 74 0 3 9 -1 18 -9
21 -8 4 -15 16 -15 29 0 17 12 28 53 48 28 14 71 31 95 38 29 8 42 18 42 30 0
9 3 24 6 33 5 12 0 16 -17 15 -13 0 -31 -3 -39 -6z"/>
<path d="M4610 3277 c0 -40 3 -44 34 -55 18 -7 53 -26 77 -42 40 -27 45 -28
57 -13 6 9 12 30 12 45 0 22 -6 31 -27 39 -54 19 -123 54 -123 61 0 5 -7 8
-15 8 -11 0 -15 -11 -15 -43z"/>
<path d="M1760 3180 c0 -47 -2 -50 -46 -80 -34 -24 -44 -37 -42 -53 5 -36 41
-33 72 5 14 18 36 43 48 55 20 20 24 21 39 7 12 -11 35 -14 93 -12 104 4 97
22 -11 26 -99 3 -117 15 -108 70 5 29 4 32 -20 32 -23 0 -25 -3 -25 -50z"/>
<path d="M5357 3203 c-12 -12 -7 -34 13 -60 11 -14 20 -30 20 -36 0 -5 -9 2
-21 17 -41 52 -63 18 -25 -39 14 -21 26 -47 26 -59 0 -14 -3 -17 -8 -9 -4 7
-22 15 -39 19 -43 9 -73 -22 -73 -76 0 -54 30 -82 85 -78 53 4 70 37 70 134 0
58 2 68 12 55 11 -14 13 -14 14 4 4 38 -1 55 -27 95 -27 40 -35 46 -47 33z"/>
<path d="M4670 3076 c0 -13 -3 -31 -6 -39 -7 -19 56 -79 77 -74 12 3 15 -1 12
-13 -3 -12 3 -23 17 -30 12 -6 23 -10 24 -8 39 57 66 110 61 118 -11 18 -52
11 -67 -11 -12 -19 -15 -20 -27 -5 -11 14 -11 16 3 16 29 0 17 18 -30 44 -57
32 -64 32 -64 2z"/>
<path d="M1645 2989 c-5 -14 0 -31 15 -51 18 -25 20 -32 9 -39 -8 -5 -19 -9
-26 -9 -18 0 -43 -41 -43 -70 1 -29 44 -95 80 -121 14 -11 46 -23 73 -28 45
-8 47 -8 47 15 0 19 -5 24 -27 24 -33 0 -113 38 -113 53 0 8 4 7 12 -1 30 -30
88 1 88 46 0 35 -22 72 -46 78 -20 5 -21 7 -7 35 13 27 13 31 -9 58 -28 36
-44 39 -53 10z"/>
<path d="M4850 2982 c0 -5 9 -17 20 -27 11 -10 20 -23 20 -28 0 -6 -9 -2 -20
8 -19 17 -21 17 -40 0 -29 -27 -25 -50 18 -82 60 -47 102 -53 102 -13 0 10 -7
23 -15 30 -8 7 -15 17 -15 23 0 5 10 -2 23 -16 26 -31 37 -34 37 -11 0 19 -98
124 -116 124 -8 0 -14 -4 -14 -8z"/>
<path d="M1907 2969 c-22 -13 -13 -29 18 -29 54 0 68 -19 38 -53 -17 -18 -17
-19 2 -33 35 -26 125 5 125 44 0 7 -7 29 -16 48 -16 34 -17 34 -83 34 -36 0
-74 -5 -84 -11z"/>
<path d="M5030 2843 c-49 -3 -57 -7 -72 -34 -27 -47 1 -85 30 -39 18 30 30 24
30 -14 0 -41 12 -64 54 -107 27 -27 41 -34 75 -34 57 0 103 42 103 96 0 31 4
39 28 48 26 11 26 11 -8 7 -45 -5 -130 -42 -130 -56 0 -7 6 -7 21 0 25 14 35
8 15 -9 -8 -7 -12 -19 -9 -27 3 -8 0 -14 -6 -14 -6 0 -11 5 -11 11 0 6 -8 9
-17 7 -13 -4 -18 1 -19 17 -1 18 10 28 55 49 31 15 76 30 101 34 34 6 48 14
59 34 9 15 13 29 10 33 -8 8 -130 -31 -154 -49 -11 -9 -28 -16 -38 -16 -10 0
-20 -7 -23 -15 -8 -21 -27 -19 -42 5 -11 19 -10 20 28 20 35 0 40 3 40 24 0
22 -27 39 -55 34 -5 -1 -35 -3 -65 -5z"/>
<path d="M1868 2815 c-20 -14 -40 -34 -43 -46 -9 -27 -9 -81 -1 -107 7 -19 5
-19 -65 -6 -40 8 -74 12 -76 11 -11 -11 33 -45 64 -51 21 -3 48 -9 61 -12 17
-5 22 -2 23 12 0 16 2 16 11 -3 14 -28 18 -28 52 -2 20 15 25 27 21 43 -5 15
-4 17 3 7 8 -11 14 -10 36 4 14 10 26 24 26 31 0 21 -57 18 -69 -3 -9 -15 -10
-13 -11 13 0 33 15 58 42 67 12 4 25 -4 42 -26 l25 -32 22 21 c27 27 20 52
-24 82 -44 29 -93 28 -139 -3z"/>
<path d="M2343 2320 c4 -30 2 -40 -9 -40 -10 0 -12 8 -7 31 l6 32 -31 -23
c-36 -26 -37 -31 -20 -48 8 -8 9 -12 1 -12 -6 0 -13 6 -16 13 -2 6 -8 9 -12 5
-10 -10 16 -43 102 -130 75 -76 106 -98 81 -58 -7 11 -16 20 -21 20 -4 0 -5
10 -2 23 4 14 -3 40 -19 69 -13 25 -22 49 -19 52 8 8 -20 106 -30 106 -5 0 -7
-18 -4 -40z"/>
<path d="M4633 2293 c-14 -47 -18 -72 -11 -80 7 -9 7 -13 0 -13 -6 0 -14 5
-17 11 -13 19 -58 31 -67 17 -12 -20 -10 -48 5 -48 15 0 66 -39 52 -40 -6 0
-16 5 -23 12 -18 18 -74 -27 -100 -80 -12 -25 -20 -47 -18 -50 12 -12 83 25
124 65 l47 44 41 -20 c56 -28 88 -27 113 5 39 50 20 99 -36 92 -34 -4 -43 -33
-14 -43 21 -6 29 -25 11 -25 -6 0 -31 13 -58 30 -33 21 -41 30 -27 30 14 0 27
14 43 49 28 61 28 65 -3 81 -14 7 -25 17 -25 22 0 4 -3 8 -8 8 -4 0 -17 -30
-29 -67z"/>
<path d="M2182 2218 c-25 -25 -3 -108 41 -157 26 -28 133 -81 165 -81 40 0 27
35 -18 49 -21 6 -42 16 -45 21 -3 5 13 3 36 -5 51 -19 59 -19 59 -1 0 8 -19
21 -42 31 -70 27 -109 62 -106 93 2 21 -2 28 -19 30 -19 3 -23 -1 -23 -25 0
-16 6 -35 13 -42 10 -10 9 -11 -5 -6 -11 4 -19 23 -23 56 -7 51 -13 57 -33 37z"/>
<path d="M4870 2049 c-162 -149 -503 -355 -670 -404 -69 -21 -114 -38 -141
-56 -47 -32 -165 -87 -231 -109 -66 -22 -92 -45 -62 -57 37 -14 372 71 521
133 186 77 303 142 517 290 58 40 206 175 206 188 0 11 -38 51 -65 68 -6 4
-40 -20 -75 -53z"/>
<path d="M1992 2037 c-18 -18 -32 -38 -32 -43 0 -22 222 -194 350 -271 212
-128 416 -211 670 -271 102 -25 210 -38 210 -26 -1 20 -19 32 -95 58 -84 30
-155 63 -216 101 -20 13 -66 32 -102 44 -37 11 -93 32 -124 47 -32 15 -83 38
-113 51 -115 51 -303 174 -430 280 -41 35 -77 63 -81 63 -3 0 -19 -15 -37 -33z"/>
<path d="M4963 1960 c-37 -34 -93 -80 -123 -102 -30 -23 -71 -53 -90 -68 -19
-15 -80 -53 -135 -86 -239 -143 -466 -228 -741 -279 -120 -22 -125 -24 -165
-64 l-42 -42 23 -27 c13 -15 41 -43 63 -63 l39 -36 -39 -62 c-35 -57 -53 -74
-53 -52 0 6 14 30 30 54 17 25 30 48 30 51 0 3 -27 33 -60 67 -53 54 -64 60
-88 54 -15 -4 -66 -6 -114 -6 -49 0 -88 -3 -88 -8 0 -4 11 -17 25 -27 14 -10
25 -25 25 -32 0 -9 -14 -2 -35 17 -20 17 -40 31 -45 31 -6 0 -11 -21 -11 -47
-1 -27 -4 -107 -8 -180 l-6 -132 -58 55 c-31 31 -54 60 -51 66 4 5 26 -9 49
-32 l43 -42 6 73 c3 41 7 115 10 164 l4 91 -48 17 c-26 9 -65 34 -87 56 -35
33 -48 39 -104 45 -167 19 -449 107 -628 195 -180 89 -350 201 -494 325 l-57
49 -30 -28 c-17 -16 -30 -32 -30 -35 0 -4 14 -11 32 -16 l32 -9 -135 -153
c-138 -159 -135 -156 -153 -99 -8 25 -28 20 -56 -15 l-24 -31 44 -39 c37 -32
132 -110 210 -171 47 -38 229 -152 315 -198 154 -83 243 -121 485 -209 60 -22
314 -80 415 -95 455 -68 962 -17 1366 135 61 23 112 40 115 37 14 -13 -312
-118 -472 -151 -603 -126 -1183 -64 -1736 185 -119 53 -306 152 -318 168 -3 4
-25 19 -50 33 -60 35 -245 173 -299 223 -23 22 -53 47 -66 55 -26 15 -21 19
-78 -50 -17 -20 -17 -22 7 -52 l24 -31 -19 -34 c-11 -19 -29 -49 -42 -66 -12
-18 -23 -34 -24 -36 -4 -6 -48 52 -46 59 1 4 -10 5 -25 2 -15 -2 -36 -16 -47
-31 -26 -36 -85 -109 -107 -133 -26 -26 -23 -48 7 -48 14 0 25 5 25 11 0 8 5
7 15 -1 9 -7 14 -19 11 -27 -3 -7 1 -13 9 -13 9 0 15 -10 15 -25 0 -14 5 -25
10 -25 6 0 10 -21 10 -47 l0 -46 21 19 c18 16 20 27 17 78 -4 46 -2 56 6 42 6
-10 19 -27 29 -39 10 -12 23 -40 29 -63 13 -48 38 -50 38 -3 0 16 3 29 6 29
12 0 36 -32 43 -57 10 -39 31 -41 31 -4 l0 31 51 -20 c94 -37 337 -42 362 -6
6 8 10 8 14 -1 15 -38 107 -166 121 -170 14 -3 16 -14 14 -62 -3 -40 1 -69 12
-89 25 -49 19 -48 -27 4 -23 26 -41 51 -39 56 1 5 -2 7 -8 3 -5 -3 -10 -2 -10
2 0 16 -85 101 -118 117 -17 9 -32 21 -32 27 0 6 8 5 22 -2 19 -9 21 -9 11 2
-10 10 -9 16 4 31 9 10 14 20 11 23 -7 7 -331 11 -390 5 -59 -5 -70 -26 -20
-34 78 -13 171 -40 161 -47 -6 -3 8 -9 31 -13 23 -3 38 -11 35 -16 -3 -6 1
-10 9 -10 8 0 31 -14 49 -30 19 -17 43 -30 53 -29 11 0 14 3 6 6 -6 2 -12 18
-12 33 l0 29 32 -19 c18 -11 49 -38 68 -60 19 -22 54 -62 77 -88 24 -26 43
-51 43 -55 0 -21 114 -97 144 -97 16 0 18 -2 7 -9 -9 -6 2 -8 30 -5 24 2 73 5
108 8 35 2 67 9 70 15 6 10 25 7 101 -16 33 -10 155 -11 161 -2 4 6 26 -2 54
-20 l49 -31 -93 0 c-94 0 -235 25 -226 40 6 9 -136 4 -168 -6 -17 -5 -12 -11
30 -35 90 -52 204 -81 338 -86 115 -5 165 1 270 34 18 5 19 4 5 -12 -8 -11
-10 -16 -4 -12 6 3 32 0 59 -8 26 -8 61 -15 77 -15 16 0 27 -4 24 -8 -8 -14
168 13 199 31 78 43 98 77 94 159 -2 35 -1 68 2 73 4 6 12 34 20 63 10 42 17
52 33 52 12 0 38 3 59 6 33 6 37 4 37 -15 0 -11 5 -21 10 -21 6 0 10 9 10 20
0 18 7 20 55 20 52 0 55 -1 45 -19 -5 -11 -10 -27 -10 -36 0 -9 -11 -26 -25
-38 -33 -28 -44 -87 -22 -121 16 -24 77 -61 77 -46 0 4 9 10 19 13 13 3 22 17
26 41 10 50 37 66 113 66 88 0 152 -17 145 -39 -4 -13 -3 -13 5 -2 9 12 22 9
84 -20 l73 -34 231 0 c178 0 235 -3 247 -13 9 -8 24 -12 33 -10 14 2 12 9 -16
36 -18 18 -45 36 -61 39 -16 3 -26 10 -22 16 4 6 35 7 84 4 44 -4 79 -2 79 2
0 5 -5 11 -11 13 -5 2 -7 11 -3 22 5 14 15 17 40 14 38 -4 46 12 16 34 -17 12
-16 15 23 48 23 19 53 51 66 70 13 19 30 41 37 48 12 13 92 175 92 186 0 3
-19 7 -42 8 -24 1 19 4 94 8 81 3 143 11 149 17 9 9 21 4 49 -18 25 -21 52
-31 88 -36 29 -3 51 -8 49 -10 -9 -9 -260 -52 -270 -46 -5 3 -7 2 -4 -4 5 -8
-51 -43 -68 -43 -3 0 -5 15 -5 34 0 49 -16 53 -39 9 -11 -21 -40 -65 -65 -98
-53 -71 -116 -195 -116 -231 0 -17 -4 -23 -12 -18 -10 5 -10 4 -1 -6 15 -16
36 -1 63 43 40 65 208 175 251 164 35 -9 22 30 -13 42 l-33 12 32 20 c20 13
82 29 170 44 76 12 158 31 182 41 41 16 146 102 137 111 -3 3 4 25 15 50 10
24 19 56 19 70 0 16 14 37 40 60 45 41 48 55 21 85 -18 19 -21 19 -36 4 -20
-20 -35 -21 -35 -2 0 8 -3 23 -6 33 -5 15 -4 15 5 3 8 -12 13 -12 23 -2 10 10
9 16 -5 30 -14 13 -19 14 -26 4 -5 -9 -11 0 -19 25 -11 37 -84 123 -103 123
-6 0 -8 4 -5 8 3 5 -15 28 -39 52 l-44 43 -77 -69 c-177 -160 -398 -309 -619
-419 -86 -42 -158 -75 -160 -73 -3 2 59 36 138 75 159 80 301 166 426 259 101
75 279 226 280 237 1 12 -85 108 -261 288 l-97 99 -68 -60z m75 -158 l34 -102
99 -46 c54 -26 99 -51 99 -57 0 -10 1 -11 -102 36 -42 20 -78 33 -81 31 -2 -3
6 -46 19 -97 21 -83 23 -110 8 -95 -3 3 -17 50 -31 104 -30 113 -33 119 -82
143 -88 44 -145 80 -137 88 3 3 42 -16 87 -41 45 -26 85 -44 88 -40 3 3 -8 46
-26 95 -17 50 -26 88 -20 86 6 -2 26 -49 45 -105z m-250 -144 c22 -35 72 -110
111 -167 39 -57 71 -105 71 -107 0 -2 -47 -4 -105 -4 -58 0 -105 1 -105 3 0 4
57 127 70 148 6 12 0 30 -23 65 -62 94 -79 124 -69 124 6 0 28 -28 50 -62z
m-202 -218 c37 -74 80 -157 96 -183 32 -55 33 -57 16 -57 -7 0 -22 19 -32 41
-17 37 -28 46 -114 86 -52 24 -97 41 -100 38 -4 -4 52 -147 79 -197 11 -21 12
-48 1 -48 -4 0 -18 28 -30 63 -13 34 -41 100 -62 147 -21 47 -40 92 -43 100
-3 8 -12 32 -21 53 -9 20 -12 37 -7 37 5 0 19 -24 31 -54 21 -54 24 -56 113
-99 68 -33 93 -41 95 -31 2 8 -22 64 -52 124 -52 102 -69 148 -47 125 5 -6 39
-71 77 -145z m910 -25 c21 -38 31 -65 23 -58 -12 10 -37 7 -125 -17 -104 -29
-163 -39 -119 -20 11 4 29 24 40 44 11 20 23 36 26 36 4 0 29 23 55 50 26 28
51 47 55 43 4 -5 24 -39 45 -78z m-2758 33 c-3 -7 -20 -60 -38 -117 l-34 -104
42 -82 c44 -85 47 -95 34 -95 -4 0 -24 29 -43 65 -18 36 -38 63 -44 62 -5 -2
-19 -34 -30 -70 -11 -37 -25 -67 -32 -67 -11 0 -1 43 26 113 13 35 14 37 1 37
-8 0 -110 -44 -132 -57 -5 -2 -8 2 -8 9 0 8 38 31 85 53 l85 38 37 114 c20 62
41 113 46 113 5 0 7 -6 5 -12z m262 -94 c13 -24 17 -25 65 -19 27 4 58 11 68
17 9 5 17 7 17 6 0 -2 -13 -97 -30 -211 -16 -115 -30 -210 -30 -213 0 -2 -28
13 -62 33 -64 38 -60 37 -130 8 -38 -16 -16 16 25 36 l43 21 52 -33 c29 -17
54 -30 56 -28 6 7 54 344 50 348 -2 3 -27 -1 -56 -7 l-51 -12 -28 32 c-32 37
-35 48 -16 48 8 0 20 -12 27 -26z m2554 -90 c6 -26 3 -34 -19 -48 -15 -10 -33
-15 -41 -12 -8 3 -13 2 -10 -3 10 -15 -210 -89 -223 -75 -3 3 -6 26 -6 50 0
43 0 44 -35 45 -19 1 8 7 60 15 116 16 232 49 245 69 11 17 19 6 29 -41z
m-3922 -35 c15 -6 26 -14 24 -18 -2 -3 8 -6 22 -7 15 -1 51 -6 81 -12 29 -7
70 -12 91 -12 33 0 38 -3 48 -36 l11 -37 -80 7 c-78 6 -164 32 -245 74 -43 22
-93 62 -77 62 5 0 15 11 21 25 l11 24 32 -29 c18 -16 45 -34 61 -41z m3218
-210 c28 -1 30 -2 13 -7 -12 -4 -35 -27 -51 -52 -42 -65 -117 -145 -154 -164
-62 -32 -93 -51 -101 -61 -7 -9 -47 28 -47 44 0 4 15 12 34 19 36 13 117 71
152 109 12 13 25 19 29 15 5 -4 5 -2 2 4 -4 6 2 22 13 35 12 12 23 33 27 47 4
18 10 22 27 18 11 -3 37 -6 56 -7z m-2310 -154 c40 -14 83 -26 94 -26 13 -1
15 -3 6 -6 -8 -2 -30 -30 -49 -62 l-35 -58 -83 85 c-46 47 -83 87 -83 89 0 12
89 -1 150 -22z m-210 -27 c0 -6 36 -46 80 -91 43 -44 76 -85 73 -91 -4 -6 2
-4 12 4 15 13 18 13 13 1 -2 -8 -16 -24 -30 -34 -26 -19 -26 -19 -56 2 -17 11
-34 21 -39 21 -16 1 -154 140 -148 150 4 6 -1 7 -12 3 -32 -12 6 26 46 47 35
18 61 13 61 -12z m416 -102 c10 -18 14 -42 11 -62 -6 -36 -36 -83 -53 -84 -14
0 -66 55 -58 63 3 3 -4 3 -17 0 -13 -4 -20 -2 -16 4 3 5 22 34 42 62 19 29 35
63 35 75 0 20 1 20 21 -4 11 -14 27 -38 35 -54z m161 13 c16 -18 33 -37 39
-43 7 -6 9 -36 6 -78 -4 -52 -1 -73 12 -92 18 -28 20 -37 9 -34 -5 1 -23 -6
-41 -16 -27 -14 -36 -15 -48 -5 -8 7 -14 8 -13 3 4 -23 -3 -23 -23 -1 -13 13
-32 29 -43 36 -16 10 -17 11 -2 7 11 -3 16 -2 12 4 -7 11 39 72 48 64 8 -8 1
149 -8 169 -12 29 22 20 52 -14z m1402 13 c119 2 125 1 134 -19 5 -12 19 -24
31 -25 11 -2 -7 -8 -41 -12 -44 -5 -63 -12 -63 -22 0 -8 -4 -14 -10 -14 -5 0
-10 10 -10 23 0 12 -12 30 -27 41 -23 17 -36 18 -132 11 -177 -14 -241 -11
-219 11 13 12 106 19 158 12 30 -5 111 -7 179 -6z"/>
<path d="M5714 1209 c-10 -12 -30 -27 -44 -34 -17 -9 -31 -31 -43 -70 -10 -31
-16 -59 -14 -62 8 -7 42 5 65 25 11 9 30 25 42 35 11 10 26 15 32 11 7 -4 8
-3 4 4 -4 6 2 17 14 24 24 15 26 36 4 66 -19 28 -36 28 -60 1z"/>
<path d="M3794 555 c-17 -44 59 -132 158 -185 113 -60 288 -56 425 10 65 32
113 69 113 90 0 21 -89 11 -128 -15 -79 -52 -225 -68 -308 -34 -94 39 -131 61
-154 96 -14 20 -24 41 -22 45 4 16 -78 9 -84 -7z"/>
<path d="M0 10 c0 -7 1180 -10 3520 -10 2340 0 3520 3 3520 10 0 7 -1180 10
-3520 10 -2340 0 -3520 -3 -3520 -10z"/>
</g>
</svg>
